<?xml version="1.0" encoding="UTF-8" standalone="no"?><!DOCTYPE svg PUBLIC "-//W3C//DTD SVG 1.1//EN" "http://www.w3.org/Graphics/SVG/1.1/DTD/svg11.dtd"><svg width="100%" height="100%" viewBox="0 0 299 115" version="1.1" xmlns="http://www.w3.org/2000/svg" xmlns:xlink="http://www.w3.org/1999/xlink" xml:space="preserve" xmlns:serif="http://www.serif.com/" style="fill-rule:evenodd;clip-rule:evenodd;stroke-linejoin:round;stroke-miterlimit:2;"><g id="hoja-med"><path d="M112.408,0.022l-0.02,0.004c-11.878,0.374 -54.68,6.546 -74.678,74.012c-0,-0 0.052,-0.006 0.122,-0.016c-1.656,6.066 -2.698,12.294 -3.078,18.566c-0.418,6.542 -0.116,13.112 0.368,19.638c0.07,0.91 0.144,1.822 0.226,2.738l34.124,-0c0.106,-0.962 0.254,-1.924 0.448,-2.884c1.6,-7.962 6.164,-14.96 9.418,-22.412c6.07,-13.894 7.58,-29.414 13.536,-43.356c3.314,-7.736 7.946,-14.888 10.626,-22.864c2.874,-8.504 4.434,-19.03 12.458,-23.064c-0.444,-0.004 -0.858,0.022 -1.274,0.08l0.83,-0.404c-0,-0 -0.65,-0.06 -1.848,-0.06c-0.37,0 -0.79,0.006 -1.258,0.022Zm-3.864,3.408l0.868,-0.416c-0.538,0.454 -1.052,0.952 -1.538,1.484c0.434,-0.67 0.67,-1.068 0.67,-1.068Zm16.324,5.864c-9,5.718 -15.712,14.898 -18.46,25.2c-2.004,7.562 -1.93,15.588 -4.188,23.094c-2.162,7.158 -6.364,13.494 -9.916,20.074c-6.28,11.638 -10.644,24.282 -12.882,37.302l207.168,0c2.65,-3.244 4.704,-6.97 5.948,-10.974c1.058,-3.392 2.966,-5.054 5.692,-7.334c-0.274,-0.024 -0.538,-0.008 -0.818,-0.02c0.154,-0.108 0.246,-0.186 0.266,-0.222c-0.12,0.016 -0.6,0.102 -1.356,0.228c-2.608,0.156 -5.138,0.98 -7.652,1.97c-1.95,0.442 -12.546,2.45 -27.112,-2.606c0,-0 -0.234,-0.096 -0.636,-0.238c-0.854,-0.392 -1.728,-0.716 -2.626,-0.938c-4.962,-1.256 -10.112,0.406 -15.21,0.848c-1.364,0.126 -2.808,0.142 -4.022,-0.494c-1.206,-0.65 -2.072,-2.15 -1.554,-3.43c0.402,-0.99 1.462,-1.524 2.466,-1.896c4.89,-1.742 10.302,-1.132 15.346,0.088c5.036,1.232 9.956,3.052 15.104,3.706c0.76,0.1 1.44,0.14 2.11,0.142l0.634,0.208c8.982,-0.648 14.356,-5.38 17.558,-11.18c5.724,-10.366 4.502,-24.152 4.502,-24.152c-0.02,0.006 -0.03,-0.002 -0.044,-0.008c-0.034,-1.792 -0.124,-4.316 -0.384,-6.36c-0,-0 0.004,-0.012 0.012,-0.024c-0.11,-0.844 -0.234,-1.6 -0.412,-2.178c-0,-0 -6.26,10.534 -20.648,2.288l-0.02,0.036c-2.802,-3.11 -6.81,-5.656 -11.086,-5c-2.322,0.362 -4.488,1.418 -6.526,2.594c-10.91,6.288 -15.87,12.956 -23.352,22.752c-1.826,2.378 -5.73,6.674 -9.028,4.086c-1.012,-0.798 -1.47,-2.166 -1.41,-3.462c0.058,-1.292 0.564,-2.528 1.138,-3.682c3.636,-7.254 10.366,-10.822 16.74,-15.254c9.7,-6.752 17.29,-15.176 23.842,-25.022c-4.018,2.302 -9.004,0.572 -13.52,-0.39c-18.326,-3.888 -37.04,6.526 -49.608,20.412c-5.102,5.63 -9.848,11.62 -13.906,18.048c-4.21,6.668 -9.358,14.924 -16.552,18.7c-3.528,1.852 -6.81,0.216 -5.928,-3.896c0.596,-2.816 2.398,-5.272 3.91,-7.662c2.636,-4.198 5.784,-8.05 9.214,-11.602c6.762,-6.984 14.692,-12.906 22.752,-18.132c7.058,-4.57 14.472,-8.54 22.076,-12.104c3.886,-1.832 7.816,-3.542 11.768,-5.176c3.004,-1.25 7.584,-4.136 10.83,-4.26c-5.86,0.23 -10.434,-4.674 -14.87,-8.496c-4.552,-3.934 -9.888,-7.086 -15.762,-8.332c-5.888,-1.254 -12.328,-0.434 -17.28,2.982c-2.89,1.996 -5.144,4.776 -7.528,7.358c-14,15.268 -33.374,25.458 -44.864,42.686c-3.946,5.902 -6.81,12.45 -9.654,18.962c-3.358,7.646 -5.236,14.896 -5.214,23.246c0.014,2.404 -0.244,5.246 -1.946,7.086c-0.368,0.402 -0.82,0.76 -1.35,0.884c-1.182,0.288 -1.846,-0.478 -2.166,-1.868l0.008,-0.012c-1.08,-4.956 2.338,-17.774 2.824,-19.552c2.45,-8.978 5.808,-17.696 9.688,-26.142c3.136,-6.812 7.11,-13.37 12.396,-18.754c5.216,-5.314 11.314,-9.646 16.876,-14.576c7.558,-6.686 14.134,-14.378 20.68,-22.04c0.058,-0.078 0.124,-0.138 0.184,-0.218c-9.838,4.454 -20.952,-1.392 -31.578,-3.314c-2.472,-0.446 -4.98,-0.666 -7.486,-0.666c-8.148,-0 -16.296,2.318 -23.178,6.686Zm-124.868,105.67l34.788,0c-0.392,-2.726 -1.244,-5.304 -2.882,-7.642c-0.336,-0.49 -0.694,-0.942 -1.07,-1.39c-0.716,-1.8 -10.662,-28.242 4.742,-55.86c0.304,-0.55 0.608,-1.102 0.936,-1.64c-0,-0 -33.914,27.046 -36.514,66.532Z" style="fill:url(#_Linear1);fill-rule:nonzero;"/><g opacity="0.4"><path d="M124.312,108.954c-0,0 0.048,-0.406 0.144,-1.07l0.006,-0.012c-1.08,-4.958 2.338,-17.776 2.824,-19.552c2.45,-8.98 5.808,-17.698 9.688,-26.144c3.138,-6.812 7.11,-13.37 12.398,-18.754c5.216,-5.314 11.312,-9.646 16.874,-14.576c7.558,-6.686 14.134,-14.378 20.678,-22.04l-37.554,21.892c-0,0 -17.512,7.77 -25.32,40.428c0,0 -9.352,27.302 0.262,39.828Z" style="fill:url(#_Linear2);fill-rule:nonzero;"/></g></g><defs><linearGradient id="_Linear1" x1="0" y1="0" x2="1" y2="0" gradientUnits="userSpaceOnUse" gradientTransform="matrix(61.4315,88.0175,88.0175,-61.4315,66.0386,0.796626)"><stop offset="0" style="stop-color:#00add1;stop-opacity:1"/><stop offset="1" style="stop-color:#00627e;stop-opacity:1"/></linearGradient><linearGradient id="_Linear2" x1="0" y1="0" x2="1" y2="0" gradientUnits="userSpaceOnUse" gradientTransform="matrix(-57.8403,104.782,104.782,57.8403,174.528,-0.0367934)"><stop offset="0" style="stop-color:#fff;stop-opacity:1"/><stop offset="1" style="stop-color:#000;stop-opacity:1"/></linearGradient></defs></svg>