<?xml version="1.0" encoding="UTF-8" standalone="no"?><!DOCTYPE svg PUBLIC "-//W3C//DTD SVG 1.1//EN" "http://www.w3.org/Graphics/SVG/1.1/DTD/svg11.dtd"><svg width="100%" height="100%" viewBox="0 0 661 558" version="1.1" xmlns="http://www.w3.org/2000/svg" xmlns:xlink="http://www.w3.org/1999/xlink" xml:space="preserve" xmlns:serif="http://www.serif.com/" style="fill-rule:evenodd;clip-rule:evenodd;stroke-linejoin:round;stroke-miterlimit:2;"><g id="hoja-palm-derecha"><path d="M385.344,75.654l-0.002,-0.004l0.002,0.004Zm72.446,141.702c16.694,37.752 31.88,77.686 42.548,111.524c5.382,16.928 9.654,32.296 12.896,45.212c3.302,12.952 5.376,23.334 7.626,31.178c4.26,-5.506 7.284,-15.654 7.598,-28.884c0.392,-13.222 -1.658,-29.426 -5.812,-47.154c-8.248,-35.51 -25.09,-76.972 -45.064,-115.122c-19.898,-38.25 -42.828,-73.188 -60.982,-98.162c-17.996,-24.806 -31.07,-40.032 -31.256,-40.294c0.322,0.552 39.528,66.326 72.446,141.702Z" style="fill:url(#_Linear1);fill-rule:nonzero;"/><path d="M192.104,0.002l-0.002,-0.002l0.002,0.002Zm100.732,123.21c24.288,33.378 47.566,69.206 65.138,100.028c8.834,15.408 16.256,29.53 22.15,41.468c5.962,11.964 10.182,21.674 14.036,28.864c3.002,-6.28 3.814,-16.838 1.33,-29.836c-2.412,-13.006 -7.832,-28.412 -15.638,-44.862c-15.558,-32.97 -40.776,-69.94 -68.356,-103.01c-27.524,-33.19 -57.314,-62.498 -80.33,-83.076c-22.854,-20.468 -38.856,-32.594 -39.062,-32.786c0.38,0.418 52.618,56.452 100.732,123.21Z" style="fill:url(#_Linear2);fill-rule:nonzero;"/><path d="M525.41,167.298l-0,-0.002l0,0.002Zm26.074,130.968c5.328,34.266 9.432,69.944 11.86,99.928c1.226,14.918 2.13,28.502 2.798,39.998c0.724,11.452 1.194,20.676 2.356,27.756c4.898,-4.414 9.402,-12.918 12.29,-24.182c0.014,-0.052 0.028,-0.106 0.042,-0.16l0,-97.808c-2.304,-15.182 -5.392,-30.63 -9.052,-45.692c-8.414,-34.99 -19.842,-67.876 -29.398,-91.796c-9.492,-23.828 -16.924,-38.86 -16.97,-39.012c0.064,0.306 15.71,62.584 26.074,130.968Z" style="fill:url(#_Linear3);fill-rule:nonzero;"/><path d="M449.498,168.682c1.166,1.936 9.17,14.92 19.686,34.682c11.424,21.432 25.62,50.936 37.812,82.342c12.342,31.39 22.362,64.598 28.968,92.766c3.254,13.53 5.648,25.866 7.822,36.464c2.368,11.518 4.476,21.006 7.17,27.784c7.7,-10.48 11.526,-35.048 7.18,-65.086c-4.122,-30.014 -15.912,-64.956 -31.616,-96.62c-15.558,-31.786 -34.68,-60.324 -50.152,-80.444c-15.39,-20.07 -26.942,-32 -27.024,-32.13c0,0 0.054,0.084 0.154,0.242Z" style="fill:url(#_Linear4);fill-rule:nonzero;"/><g opacity="0.4"><path d="M543.786,414.936c-2.174,-10.598 -4.566,-22.936 -7.822,-36.462c-6.604,-28.17 -16.626,-61.378 -28.966,-92.768c-12.194,-31.406 -26.39,-60.91 -37.812,-82.342c-10.516,-19.76 -18.522,-32.746 -19.69,-34.682c4.006,4.752 8.726,10.566 13.878,17.282c15.482,20.116 34.6,48.668 50.16,80.438c15.71,31.676 27.496,66.608 31.622,96.63c3.026,20.924 2.08,39.202 -1.37,51.904Z" style="fill:url(#_Linear5);fill-rule:nonzero;"/></g><path d="M517.276,207.714l-0,-0.002l0,0.002Zm7.292,15.542c2.646,5.838 5.878,13.15 9.42,21.608c9.532,22.712 21.174,53.844 30.746,86.696c6.472,21.846 11.892,44.402 16.096,65.606l0,-76.056c-12.276,-30.452 -27.202,-58.066 -39.66,-78.18c-13.486,-21.842 -23.834,-35.086 -23.894,-35.216c0.03,0.084 2.854,5.754 7.292,15.542Z" style="fill:url(#_Linear6);fill-rule:nonzero;"/><g opacity="0.4"><path d="M594.332,486.414c-2.746,-14.06 -4.298,-34.314 -8.096,-58.484c-4.414,-29.056 -11.77,-63.514 -21.502,-96.37c-9.572,-32.852 -21.212,-63.984 -30.746,-86.696c-3.542,-8.458 -6.772,-15.77 -9.42,-21.61c3.228,4.804 7.034,10.638 11.12,17.262c13.562,21.898 30.06,52.68 42.87,86.346c12.968,33.566 21.908,70.02 23.772,100.634c1.748,25.918 -1.878,47.21 -7.998,58.918Z" style="fill:url(#_Linear7);fill-rule:nonzero;"/></g><path d="M177.236,217.194c-4.18,0.188 -8.386,0.408 -12.616,0.654c-4.23,0.266 -8.464,0.528 -12.74,1.05c-4.27,0.486 -8.532,0.994 -12.79,1.536c-2.134,0.28 -4.246,0.56 -6.37,0.854c-2.12,0.346 -4.254,0.708 -6.36,1.066c-33.822,5.61 -65.818,15.684 -88.906,24.83c-23.074,9.132 -37.38,16.996 -37.454,16.998c0.07,0.004 14.876,-5.33 37.862,-11.152c23.038,-5.848 54.284,-11.846 86.726,-14.842c32.466,-3.168 65.966,-3.156 94.21,-1.62c3.548,0.134 7.022,0.286 10.404,0.454c3.35,0.256 6.62,0.494 9.798,0.704c6.35,0.452 12.398,0.676 17.914,0.968c10.958,0.766 20.22,0.828 27.11,-0.266c-4.508,-3.788 -12.21,-7.614 -22.33,-11.228c-5.1,-1.712 -10.888,-3.122 -17.12,-4.54c-3.126,-0.698 -6.374,-1.36 -9.734,-1.998c-3.388,-0.548 -6.898,-0.994 -10.502,-1.432c-11.334,-1.494 -23.726,-2.182 -36.63,-2.182c-3.456,-0 -6.952,0.05 -10.472,0.146Zm-177.236,46.988l0.002,-0l-0,-0.002l-0.002,-0l-0,0.002Z" style="fill:url(#_Linear8);fill-rule:nonzero;"/><path d="M63.578,194.522c-23.292,4.838 -38.212,9.754 -38.204,9.716c-0.012,0.03 14.826,-1.952 37.358,-3.128c22.54,-1.226 52.748,-1.332 83.304,1.572c30.594,2.782 61.346,8.76 85.922,16.324c12.33,3.728 23.132,7.776 32.232,11.366c2.238,0.942 4.522,1.692 6.54,2.568c2.03,0.864 4.008,1.636 5.914,2.322c3.754,1.428 7.03,2.694 10.182,3.364c-0.814,-2.728 -2.192,-5.958 -4.452,-9.218c-1.166,-1.598 -2.49,-3.258 -3.968,-4.976c-1.466,-1.732 -3.278,-3.278 -5.144,-4.988c-7.578,-6.66 -18.174,-13.032 -30.836,-18.176c-25.33,-10.454 -58.728,-15.64 -91.282,-15.778c-1.012,-0.008 -2.022,-0.012 -3.032,-0.012c-31.528,-0 -61.992,4.32 -84.534,9.044Z" style="fill:url(#_Linear9);fill-rule:nonzero;"/><path d="M301.688,250.926c-1.192,-0.024 -2.42,-0.024 -3.678,-0.008c-2.514,0.032 -5.158,0.146 -7.922,0.34c-5.492,0.464 -11.564,0.88 -17.994,1.696c-6.418,0.858 -13.282,1.752 -20.42,2.976c-28.574,4.76 -61.854,13.17 -92.942,23.502c-61.416,20.01 -113.226,47.87 -114.856,48.696c1.446,-0.356 39.8,-11.958 88.664,-24.21c8.722,-2.184 17.774,-4.378 27.016,-6.55c30.958,-7.416 64.046,-14.486 92.766,-21.6c7.172,-1.808 14.066,-3.518 20.578,-5.456c6.504,-1.894 12.582,-3.634 18.182,-5.734c2.784,-1.004 5.432,-1.994 7.92,-2.992c1.252,-0.496 2.464,-0.994 3.626,-1.486c1.192,-0.548 2.304,-1.1 3.402,-1.656c1.808,-0.916 3.484,-1.812 5.032,-2.706c2.172,-1.266 4.086,-2.51 5.712,-3.754c-3.3,-0.706 -7.228,-1.068 -11.662,-1.096c-0.202,0 -2.458,0.012 -3.424,0.038Z" style="fill:url(#_Linear10);fill-rule:nonzero;"/><g opacity="0.4"><path d="M311.062,255.738c-1.548,0.894 -3.224,1.792 -5.032,2.708c-1.096,0.554 -2.21,1.106 -3.402,1.654c-1.162,0.492 -2.374,0.99 -3.626,1.486c-2.488,0.996 -5.136,1.99 -7.92,2.992c-5.6,2.1 -11.678,3.84 -18.182,5.734c-6.512,1.938 -13.406,3.648 -20.578,5.456c-28.722,7.114 -61.808,14.184 -92.768,21.6c-9.238,2.172 -18.292,4.368 -27.016,6.55c10.45,-4.562 21.524,-9.102 32.954,-13.374c30.61,-11.66 63.51,-21.486 91.852,-27.47c7.076,-1.526 13.896,-2.718 20.27,-3.85c6.382,-1.098 12.438,-1.764 17.9,-2.46c2.752,-0.314 5.39,-0.542 7.902,-0.68c1.246,-0.074 2.48,-0.128 3.676,-0.156c1.176,-0.084 3.786,-0.19 3.97,-0.19Z" style="fill:url(#_Linear11);fill-rule:nonzero;"/></g><path d="M348.092,282.458c-5.38,0.342 -11.334,0.622 -17.626,1.3c-6.276,0.724 -12.996,1.478 -19.974,2.542c-27.946,4.16 -60.456,11.888 -90.776,21.622c-60.794,19.096 -111.774,46.576 -111.94,46.604c0.152,0.05 52.492,-15.418 113.066,-28.758c30.272,-6.83 62.636,-13.226 90.7,-19.716c7.006,-1.646 13.738,-3.202 20.092,-5c6.346,-1.746 12.28,-3.342 17.72,-5.312c2.724,-0.942 5.294,-1.874 7.722,-2.806c1.214,-0.466 2.388,-0.934 3.522,-1.394c1.15,-0.528 2.236,-1.054 3.296,-1.574c4.218,-2.09 7.718,-4.15 10.394,-6.192c-3.25,-0.78 -7.116,-1.23 -11.466,-1.356c-1.09,-0.034 -2.204,-0.042 -3.354,-0.038c-1.172,-0.05 -2.38,-0.074 -3.61,-0.086c-0.346,-0.004 -0.694,-0.006 -1.044,-0.006c-2.15,0 -4.392,0.058 -6.722,0.17Zm-240.316,72.068l0.002,0l-0,-0.002l-0.002,0l-0,0.002Z" style="fill:url(#_Linear12);fill-rule:nonzero;"/><path d="M376.984,337.43c-33.018,-0.026 -71.652,3.398 -107.772,9.912c-72.578,12.66 -133.216,37.908 -133.394,37.866c0.186,0.132 60.934,-13.416 132.61,-20.366c35.796,-3.702 74.222,-5.81 107.712,-7.974c4.188,-0.282 8.278,-0.54 12.274,-0.798c4.03,-0.362 7.92,-0.706 11.726,-1.05c3.786,-0.34 7.47,-0.686 11.008,-1.026c3.546,-0.402 6.976,-0.926 10.242,-1.388c13.03,-1.658 23.666,-4.66 30.362,-7.7c-7.42,-2.728 -17.698,-4.044 -30.466,-5.528c-3.176,-0.322 -6.494,-0.514 -9.95,-0.752c-3.468,-0.298 -7.062,-0.536 -10.78,-0.704c-3.718,-0.168 -7.546,-0.264 -11.464,-0.296c-3.752,-0.126 -7.604,-0.196 -11.53,-0.196l-0.578,0Zm-241.166,47.778l0.002,0l-0,-0.002l-0.002,-0l-0,0.002Z" style="fill:url(#_Linear13);fill-rule:nonzero;"/><path d="M154.666,51.03c-0.002,-0 0.002,0.002 0.006,0.004c-0.004,-0.004 -0.006,-0.004 -0.006,-0.004c-0.002,-0 -0.002,-0 -0,-0Zm100.728,89.03c24.346,24.818 47.788,52.078 65.928,75.994c9.098,11.946 16.936,23.022 23.368,32.434c6.488,9.42 11.446,17.182 16.046,22.642c1.88,-6.606 1.524,-16.562 -1.866,-27.996c-3.33,-11.452 -9.456,-24.394 -17.786,-37.666c-16.61,-26.638 -42.086,-54.432 -69.506,-77.964c-27.34,-23.648 -56.538,-43.098 -78.972,-56.21c-22.15,-12.97 -37.558,-20.048 -37.934,-20.26c0.698,0.498 52.694,39.394 100.722,89.026Z" style="fill:url(#_Linear14);fill-rule:nonzero;"/><path d="M92.924,137.62c-2.068,0.084 -3.186,0.168 -3.188,0.162c-0,0 0.192,0.034 0.566,0.11c2.712,0.482 14.942,2.702 31.666,7.63c19.018,5.594 43.632,14.894 67.254,27.082c23.736,12.064 46.26,27.044 64.572,40.522c2.328,1.668 4.684,3.212 6.854,4.836c2.128,1.662 4.236,3.246 6.31,4.762c4.094,3.064 8.234,5.708 11.9,8.246c2.168,1.558 4.282,2.97 6.356,4.238c4.804,2.95 9.316,5.07 13.46,6.18c-0.268,-5.59 -2.864,-12.522 -7.324,-20.368c-2.284,-3.878 -5.362,-7.706 -8.706,-11.808c-1.688,-2.036 -3.472,-4.102 -5.354,-6.196c-1.928,-2.064 -4.116,-4.004 -6.292,-6.026c-2.206,-2.008 -4.494,-4.04 -6.878,-6.062c-1.196,-1.016 -2.4,-2.026 -3.616,-3.054c-1.26,-0.976 -2.588,-1.908 -3.914,-2.866c-2.668,-1.868 -5.382,-3.772 -8.146,-5.672c-2.794,-1.866 -5.56,-3.828 -8.616,-5.49c-3.014,-1.698 -6.06,-3.404 -9.134,-5.094c-3.106,-1.654 -6.152,-3.384 -9.444,-4.818c-3.248,-1.472 -6.532,-2.936 -9.79,-4.378c-1.638,-0.706 -3.28,-1.398 -4.928,-2.098c-1.644,-0.694 -3.364,-1.284 -5.038,-1.902c-26.83,-10.148 -54.944,-15.258 -76.17,-17.058c-9.568,-0.816 -17.724,-1.04 -23.804,-1.04c-3.668,0 -6.582,0.082 -8.596,0.162Z" style="fill:url(#_Linear15);fill-rule:nonzero;"/><g opacity="0.4"><path d="M285.214,235.208c-2.074,-1.268 -4.188,-2.68 -6.356,-4.238c-3.666,-2.538 -7.806,-5.182 -11.9,-8.246c-2.074,-1.514 -4.18,-3.1 -6.31,-4.762c-2.17,-1.624 -4.526,-3.168 -6.854,-4.836c-18.314,-13.478 -40.836,-28.458 -64.572,-40.522c-23.622,-12.19 -48.236,-21.486 -67.254,-27.082c-16.724,-4.928 -28.954,-7.148 -31.666,-7.63c5.958,0.022 13.728,0.262 22.752,1.036c21.226,1.8 49.348,6.918 76.17,17.056c1.674,0.62 3.396,1.21 5.038,1.902c1.648,0.702 3.292,1.394 4.93,2.1c3.262,1.452 6.54,2.906 9.79,4.378c3.29,1.432 6.338,3.164 9.442,4.818c3.08,1.698 6.12,3.394 9.142,5.104c3.056,1.66 5.814,3.614 8.61,5.48c2.764,1.898 5.478,3.802 8.15,5.68c1.322,0.95 2.648,1.882 3.908,2.856c1.216,1.03 2.422,2.038 3.616,3.054c2.386,2.024 4.672,4.056 6.878,6.062c2.182,2.034 4.364,3.962 6.292,6.028c1.882,2.094 3.674,4.168 5.36,6.202c3.338,4.094 6.416,7.924 8.7,11.8c2.842,4.998 4.922,9.618 6.134,13.76Z" style="fill:url(#_Linear16);fill-rule:nonzero;"/></g><path d="M414.676,160.072c9.202,17.566 19.62,41.718 27.272,67.176c7.826,25.456 12.696,52.058 15.742,74.596c0.414,2.826 0.938,5.592 1.282,8.28c0.29,2.692 0.61,5.306 0.96,7.846c0.644,5.078 1.616,9.894 2.34,14.29c1.3,8.77 3.308,16.128 6.278,21.494c3.834,-4.08 7.02,-10.764 9.558,-19.426c1.2,-4.336 1.82,-9.212 2.448,-14.46c0.288,-2.628 0.534,-5.354 0.724,-8.164c0.154,-2.814 0.022,-5.732 -0.032,-8.71c-0.096,-2.984 -0.222,-6.038 -0.42,-9.16c-0.106,-1.562 -0.216,-3.134 -0.326,-4.718c-0.174,-1.59 -0.422,-3.186 -0.654,-4.804c-0.506,-3.224 -1.028,-6.498 -1.58,-9.806c-0.602,-3.302 -1.114,-6.648 -2.04,-10c-0.874,-3.354 -1.768,-6.726 -2.686,-10.112c-0.976,-3.384 -1.842,-6.776 -3.102,-10.142c-1.198,-3.362 -2.426,-6.73 -3.66,-10.08c-0.632,-1.668 -1.266,-3.336 -1.908,-5.004c-0.646,-1.66 -1.42,-3.308 -2.14,-4.946c-11.346,-26.338 -27.214,-50.108 -40.672,-66.624c-13.482,-16.57 -24.232,-26.072 -24.212,-26.082c-0.032,0.002 7.638,10.982 16.828,28.556Z" style="fill:url(#_Linear17);fill-rule:nonzero;"/><path d="M121.966,58.296c21.256,16.048 49.264,38.794 76.76,64.286c27.628,25.398 54.556,53.482 76.356,77.954c21.99,24.4 38.78,45.188 51.676,54.532c-0.268,-15.164 -12.266,-41.924 -33.452,-69.908c-20.99,-28.106 -50.75,-56.992 -81.456,-80.514c-30.68,-23.714 -62.192,-42.158 -85.898,-54.128c-23.732,-12.022 -39.632,-17.818 -39.614,-17.836c-0.014,0.016 14.384,9.526 35.628,25.614Z" style="fill:url(#_Linear18);fill-rule:nonzero;"/><path d="M334.752,130.248c11.384,15.77 25.12,37.9 36.704,61.882c1.56,2.964 2.878,6.018 4.244,9.07c1.4,3.04 2.75,6.086 4.132,9.138c1.454,3.022 2.536,6.16 3.818,9.198c1.244,3.064 2.492,6.11 3.708,9.15c1.322,3 2.242,6.086 3.374,9.076c1.114,3.002 2.194,5.972 3.26,8.898c0.524,1.456 1.128,2.9 1.596,4.352c0.474,1.464 0.936,2.908 1.386,4.334c0.936,2.864 1.864,5.656 2.808,8.414c0.9,2.746 1.972,5.394 2.76,8.028c0.804,2.638 1.594,5.192 2.414,7.674c0.818,2.472 1.636,4.866 2.488,7.17c0.806,2.31 1.8,4.51 2.46,6.652c0.49,1.45 1.004,2.85 1.514,4.208c2.534,6.606 5.332,12.05 8.478,15.942c2.604,-4.94 4.138,-12.318 4.73,-21.528c0.218,-2.304 0.02,-4.688 -0.062,-7.198c-0.126,-2.494 -0.306,-5.096 -0.564,-7.778c-0.254,-2.7 -0.56,-5.458 -0.932,-8.318c-0.38,-2.856 -1.088,-5.736 -1.704,-8.714c-0.658,-2.964 -1.37,-5.988 -2.138,-9.064c-0.392,-1.54 -0.782,-3.096 -1.186,-4.654c-0.434,-1.564 -0.988,-3.108 -1.502,-4.676c-1.07,-3.12 -2.172,-6.286 -3.29,-9.48c-1.186,-3.176 -2.218,-6.44 -3.704,-9.596c-1.422,-3.172 -2.866,-6.368 -4.328,-9.566c-1.528,-3.18 -2.89,-6.43 -4.67,-9.532c-1.714,-3.126 -3.436,-6.238 -5.18,-9.346c-1.752,-3.106 -3.488,-6.18 -5.472,-9.152c-15.088,-24.09 -33.666,-44.738 -48.788,-58.58c-12.036,-11.046 -21.71,-17.95 -25.162,-20.314c-0.014,-0.004 -0.02,-0.012 -0.02,-0.012c-0.742,-0.508 -1.194,-0.808 -1.32,-0.884c0.578,0.664 9.188,9.998 20.148,25.206Z" style="fill:url(#_Linear19);fill-rule:nonzero;"/><g opacity="0.4"><path d="M411.42,297.492c-0.514,-1.358 -1.024,-2.758 -1.518,-4.208c-0.656,-2.142 -1.654,-4.342 -2.458,-6.652c-0.852,-2.306 -1.67,-4.698 -2.486,-7.17c-0.822,-2.482 -1.612,-5.036 -2.416,-7.674c-0.788,-2.634 -1.86,-5.282 -2.76,-8.028c-0.944,-2.756 -1.872,-5.55 -2.808,-8.416c-0.45,-1.424 -0.912,-2.868 -1.386,-4.33c-0.468,-1.454 -1.074,-2.896 -1.596,-4.354c-1.066,-2.928 -2.148,-5.898 -3.26,-8.898c-1.134,-2.99 -2.052,-6.076 -3.374,-9.076c-1.216,-3.04 -2.464,-6.088 -3.708,-9.15c-1.282,-3.038 -2.364,-6.176 -3.818,-9.198c-1.382,-3.052 -2.732,-6.098 -4.132,-9.14c-1.368,-3.048 -2.684,-6.104 -4.246,-9.068c-11.582,-23.982 -25.316,-46.112 -36.702,-61.884c-10.962,-15.206 -19.57,-24.54 -20.148,-25.204c0.126,0.076 0.578,0.376 1.32,0.884c-0,0 0.006,0.008 0.02,0.012c4.002,3.188 8.758,7.19 13.95,11.958c15.112,13.846 33.708,34.5 48.78,58.586c1.982,2.97 3.724,6.056 5.472,9.15c1.744,3.108 3.464,6.222 5.18,9.348c1.778,3.102 3.15,6.344 4.678,9.524c1.452,3.206 2.898,6.4 4.318,9.574c1.486,3.156 2.518,6.418 3.714,9.588c1.108,3.2 2.21,6.368 3.288,9.496c0.508,1.558 1.058,3.102 1.494,4.666c0.404,1.56 0.794,3.114 1.194,4.648c0.762,3.084 1.48,6.1 2.136,9.08c0.62,2.964 1.328,5.844 1.7,8.704c0.37,2.86 0.682,5.628 0.93,8.318c0.26,2.684 0.448,5.28 0.564,7.78c0.082,2.508 0.28,4.892 0.062,7.198c-0.344,5.288 -0.992,9.974 -1.984,13.936Z" style="fill:url(#_Linear20);fill-rule:nonzero;"/></g><path d="M170.282,33.384c5.07,4.598 13.66,12.572 24.186,23.052c17.184,17.084 39.286,41.048 59.942,67.42c20.772,26.31 39.904,55.01 54.13,80c7.174,12.484 13.176,24.002 18.314,33.756c1.228,2.444 2.592,4.75 3.72,6.972c1.146,2.212 2.278,4.298 3.444,6.234c0.06,0.092 0.11,0.192 0.164,0.276c2.16,3.784 4.124,7.054 6.298,9.668c1.042,-3.21 1.892,-7.228 2.128,-11.844c0.08,-2.3 0.066,-4.76 -0.04,-7.37c-0.098,-2.616 -0.5,-5.3 -0.886,-8.164c-1.698,-11.37 -5.734,-24.544 -11.934,-38.284c-12.318,-27.578 -33.556,-57.146 -57.618,-82.486c-23.986,-25.466 -50.584,-46.788 -71.368,-61.254c-20.77,-14.502 -35.46,-22.434 -35.474,-22.452c0.018,0.026 1.812,1.59 4.994,4.476Z" style="fill:url(#_Linear21);fill-rule:nonzero;"/><g opacity="0.4"><path d="M334.182,251.094c-0.054,-0.084 -0.104,-0.184 -0.162,-0.276c-1.168,-1.936 -2.3,-4.024 -3.446,-6.234c-1.128,-2.222 -2.492,-4.528 -3.72,-6.972c-5.138,-9.756 -11.138,-21.274 -18.314,-33.756c-14.224,-24.992 -33.356,-53.69 -54.13,-80.002c-20.656,-26.37 -42.756,-50.334 -59.942,-67.416c-10.526,-10.48 -19.116,-18.456 -24.186,-23.054c5.972,3.698 13.734,8.686 22.6,14.878c20.788,14.45 47.394,35.78 71.37,61.254c24.062,25.34 45.3,54.906 57.618,82.484c6.2,13.742 10.23,26.908 11.934,38.286c0.38,2.854 0.788,5.548 0.896,8.158c0.098,2.616 0.11,5.076 0.04,7.368c-0.094,1.864 -0.288,3.634 -0.558,5.282Z" style="fill:url(#_Linear22);fill-rule:nonzero;"/></g><path d="M254.206,239.45c-6.324,0.2 -13.1,0.762 -20.134,1.268c-28.204,2.488 -61.182,8.024 -92.372,14.75c-19.444,4.162 -38.218,8.756 -54.848,13.11c-10.044,2.632 -19.318,5.18 -27.476,7.47c-21.648,6.116 -35.546,10.206 -35.564,10.178c0.024,0.038 13.662,-0.806 34.994,-2.966c21.356,-2.124 50.428,-5.32 81.366,-9.076c30.918,-3.784 63.772,-8.08 92.24,-13.006c7.098,-1.122 13.94,-2.526 20.374,-3.826c6.446,-1.348 12.49,-2.568 18.04,-4.09c11.11,-2.97 20.212,-6.072 26.426,-9.57c-0.342,-0.15 -0.704,-0.284 -1.07,-0.43c-5.78,-2.186 -14.112,-3.452 -24.3,-3.774c-3.25,-0.09 -6.686,-0.174 -10.286,-0.174c-2.392,0 -4.858,0.038 -7.39,0.136Z" style="fill:url(#_Linear23);fill-rule:nonzero;"/><g opacity="0.4"><path d="M296.182,243.262c-5.768,2.208 -12.978,4.16 -21.284,6.01c-5.606,1.27 -11.696,2.234 -18.192,3.298c-6.492,1.026 -13.38,2.13 -20.53,2.946c-28.65,3.696 -61.666,6.568 -92.714,9.022c-20.202,1.572 -39.618,2.946 -56.61,4.042c16.63,-4.354 35.404,-8.952 54.848,-13.112c31.19,-6.724 64.168,-12.262 92.372,-14.75c7.034,-0.504 13.81,-1.068 20.136,-1.268c6.336,-0.246 12.262,-0.11 17.674,0.036c10.186,0.322 18.518,1.59 24.3,3.776Z" style="fill:url(#_Linear24);fill-rule:nonzero;"/></g><path d="M386.988,115.182c4.918,20.894 11.92,49.286 19.724,79.458c7.83,30.146 16.416,62.156 25.056,89.722c2.052,6.896 4.344,13.488 6.482,19.698c2.19,6.208 4.2,12.036 6.428,17.34c4.412,10.612 8.684,19.234 12.974,24.932c1.668,-6.07 1.912,-14.922 0.818,-25.704c-0.56,-5.382 -1.206,-11.274 -2.286,-17.526c-1.03,-6.246 -2.486,-12.888 -3.914,-19.786c-6.184,-27.636 -16.026,-59.592 -26.804,-89.624c-10.728,-30.052 -22.368,-58.234 -31.252,-78.894c-8.918,-20.658 -14.804,-33.888 -14.784,-33.91c-0.034,0.008 2.594,13.412 7.558,34.294Z" style="fill:url(#_Linear25);fill-rule:nonzero;"/><path d="M330.626,261.208c-4.464,0.152 -9.352,0.806 -14.836,1.344c-5.466,0.608 -11.304,1.656 -17.558,2.83c-6.27,1.052 -12.912,2.42 -19.782,4.062c-27.61,6.132 -59.592,15.492 -89.526,26.016c-29.954,10.47 -57.79,22.196 -77.974,31.412c-19.56,8.924 -32.082,15.302 -32.856,15.664c0.876,-0.204 13.654,-3.61 33.408,-8.906c9.99,-2.676 21.762,-5.794 34.71,-9.178c13.616,-3.546 28.52,-7.39 44.004,-11.326c30.15,-7.7 62.55,-15.848 90.538,-24.322c6.996,-2.246 13.688,-4.418 19.966,-6.52c6.276,-2.23 12.14,-4.592 17.448,-6.782c5.306,-2.112 10.05,-4.634 14.112,-6.934c2.106,-1.208 4.04,-2.4 5.76,-3.574c1.588,-1.078 2.998,-2.144 4.248,-3.2c-2.526,-0.432 -5.418,-0.646 -8.626,-0.646c-0.984,0 -1.996,0.02 -3.036,0.06Z" style="fill:url(#_Linear26);fill-rule:nonzero;"/><g opacity="0.4"><path d="M332.28,268.568c-4.062,2.3 -8.804,4.822 -14.112,6.934c-5.308,2.19 -11.172,4.552 -17.448,6.782c-6.278,2.102 -12.97,4.274 -19.968,6.52c-27.984,8.474 -60.384,16.622 -90.538,24.32c-15.482,3.938 -30.386,7.782 -44.002,11.328c14.818,-6.728 31.482,-13.86 48.888,-20.564c29.586,-11.48 61.25,-21.852 88.656,-28.858c6.818,-1.872 13.402,-3.452 19.636,-4.702c6.216,-1.358 12.024,-2.598 17.468,-3.386c5.456,-0.704 10.332,-1.52 14.772,-1.812c0.82,-0.066 1.618,-0.104 2.408,-0.136c-1.722,1.174 -3.654,2.366 -5.76,3.574Z" style="fill:url(#_Linear27);fill-rule:nonzero;"/></g><path d="M344.692,313.986c-28.708,1.8 -62.334,5.19 -94.11,9.924c-31.792,4.652 -61.654,10.65 -83.448,15.614c-21.106,4.814 -34.738,8.434 -35.586,8.622c0.932,0.008 14.2,-0.638 34.816,-1.848c2.34,-0.142 4.772,-0.282 7.29,-0.432c20.534,-1.198 46.916,-2.708 75.196,-4.378c31.688,-1.96 66,-4.09 95.896,-8.148c14.922,-2.028 28.702,-4.62 40.094,-7.822c4.594,-1.238 8.786,-2.678 12.502,-4.146c0.912,-0.356 1.796,-0.71 2.642,-1.064c4.342,-1.878 7.89,-3.94 10.616,-5.898c-3.422,-0.84 -7.424,-1.258 -11.982,-1.542c-4.59,-0.358 -9.676,-0.36 -15.284,-0.408c-11.182,0.128 -24.328,0.552 -38.642,1.526Z" style="fill:url(#_Linear28);fill-rule:nonzero;"/><g opacity="0.4"><path d="M397.344,321.374c-3.718,1.466 -7.91,2.906 -12.504,4.144c-11.392,3.202 -25.172,5.794 -40.094,7.822c-29.896,4.058 -64.208,6.186 -95.896,8.148c-28.28,1.67 -54.664,3.182 -75.198,4.376c20.638,-4.5 46.678,-9.528 74.162,-13.556c31.784,-4.724 65.404,-8.124 94.112,-9.924c14.314,-0.974 27.45,-1.392 38.646,-1.518c5.604,0.04 10.678,0.048 15.27,0.406c0.504,0.032 1.008,0.064 1.502,0.102Z" style="fill:url(#_Linear29);fill-rule:nonzero;"/></g><path d="M295.66,367.776c-36.27,4.264 -70.082,11.22 -94.586,17.306c-23.732,5.898 -38.922,10.668 -39.884,10.902c0.942,-0.062 15.936,-1.874 39.358,-4.216c4.974,-0.502 10.338,-1.002 16.022,-1.512c21.962,-1.948 48.846,-3.866 77.444,-5.076c35.95,-1.63 74.704,-1.974 108.506,-3.136c16.892,-0.616 32.498,-1.55 45.596,-3.224c6.676,-0.802 12.688,-1.884 17.858,-3.162c4.974,-1.236 9.168,-2.65 12.44,-4.184c-7.422,-2.67 -17.872,-4.326 -30.642,-5.878c-12.756,-1.442 -27.824,-2.434 -44.312,-2.886c-6.09,-0.178 -12.37,-0.268 -18.794,-0.268c-28.348,0 -59.464,1.746 -89.006,5.334Z" style="fill:url(#_Linear30);fill-rule:nonzero;"/><g opacity="0.4"><path d="M465.974,375.656c-5.17,1.28 -11.182,2.364 -17.858,3.164c-13.098,1.674 -28.704,2.608 -45.596,3.224c-33.802,1.164 -72.556,1.506 -108.506,3.136c-28.6,1.21 -55.48,3.128 -77.444,5.076c23.028,-5.304 51.992,-10.848 82.72,-14.458c36.238,-4.4 74.838,-6.03 107.794,-5.074c16.49,0.452 31.556,1.442 44.318,2.894c5.264,0.634 10.138,1.294 14.572,2.038Z" style="fill:url(#_Linear31);fill-rule:nonzero;"/></g><path d="M321.458,394.04c-35.838,3.454 -69.354,9.086 -93.646,14.12c-24.312,5.03 -39.61,9.062 -39.628,9.002c0.012,0.056 14.972,-0.982 38.862,-2.398c23.89,-1.412 56.844,-2.826 92.68,-3.534c35.756,-0.828 74.548,-0.762 108.392,-2.756c16.88,-1.026 32.462,-2.708 45.26,-5.404c12.83,-2.542 22.684,-6.694 28.34,-10.762c-7.778,-1.622 -17.97,-1.856 -30.552,-2.434c-12.518,-0.442 -27.28,-0.666 -43.464,-0.67l-1.368,0c-32.068,0 -69.568,1.314 -104.876,4.836Z" style="fill:url(#_Linear32);fill-rule:nonzero;"/><path d="M360.554,422.122c-35.34,2.954 -68.396,8.164 -92.338,12.914c-23.206,4.596 -38.066,8.358 -39.01,8.54c1.006,-0 15.574,-0.86 38.374,-1.968c2,-0.098 4.056,-0.192 6.184,-0.28c22.97,-1.022 53.014,-1.87 85.426,-2.056c11.518,-0.106 23.352,-0.106 35.228,-0.106c24.544,0 49.264,0 71.722,-0.956c16.618,-0.742 31.932,-2.156 44.472,-4.626c6.636,-1.23 12.446,-2.918 17.252,-4.828c4.314,-1.702 7.822,-3.58 10.418,-5.454c-7.686,-1.772 -17.726,-2.19 -30.12,-2.984c-12.348,-0.66 -26.89,-1.134 -42.846,-1.402c-6.576,-0.12 -13.388,-0.184 -20.374,-0.184c-26.908,-0 -56.348,0.954 -84.388,3.39Z" style="fill:url(#_Linear33);fill-rule:nonzero;"/><g opacity="0.4"><path d="M527.864,428.756c-4.806,1.91 -10.616,3.598 -17.252,4.83c-12.54,2.468 -27.854,3.882 -44.47,4.622c-33.326,1.422 -71.626,0.732 -106.952,1.062c-32.412,0.188 -62.456,1.036 -85.426,2.06c23.512,-4.504 54.69,-9.276 87.9,-12.048c35.32,-3.07 72.864,-3.794 104.77,-3.214c15.954,0.27 30.498,0.744 42.836,1.408c6.934,0.446 13.136,0.77 18.594,1.28Z" style="fill:url(#_Linear34);fill-rule:nonzero;"/></g><path d="M368.862,445.186c-38.884,1.25 -75.22,5.842 -101.494,10.458c-25.738,4.494 -42.082,8.538 -42.79,8.634c0.804,0.012 16.758,-1.116 41.898,-2.134c3.448,-0.146 7.068,-0.268 10.852,-0.378c24.506,-0.746 55.716,-0.91 89.198,0.376c38.596,1.298 80.314,4.75 116.746,6.524c18.176,0.828 35.02,1.08 48.992,-0.082c6.448,-0.524 12.246,-1.408 17.248,-2.564c5.872,-1.362 10.654,-3.086 14.108,-5.05c-8.168,-2.324 -19.118,-3.886 -32.6,-5.834c-13.478,-1.922 -29.422,-3.962 -46.96,-5.732c-27.298,-2.834 -58.39,-4.686 -89.168,-4.684c-8.732,0 -17.444,0.148 -26.03,0.466Z" style="fill:url(#_Linear35);fill-rule:nonzero;"/><g opacity="0.4"><path d="M549.51,466.02c-4.998,1.158 -10.798,2.042 -17.246,2.564c-13.972,1.162 -30.816,0.91 -48.992,0.082c-36.432,-1.774 -78.15,-5.226 -116.746,-6.524c-33.482,-1.288 -64.692,-1.12 -89.198,-0.376c25.01,-3.954 56.884,-7.574 90.678,-8.666c38.844,-1.434 80.162,0.588 115.19,4.222c17.536,1.77 33.496,3.814 46.966,5.742c7.188,1.03 13.64,1.952 19.348,2.956Z" style="fill:url(#_Linear36);fill-rule:nonzero;"/></g><path d="M359.102,475.34c-21.496,1.1 -35.142,2.464 -35.154,2.414c0.018,0.046 13.034,1.528 33.898,3.906c8.306,0.946 17.862,2.088 28.324,3.396l153.83,0c-2.556,-0.38 -5.166,-0.758 -7.822,-1.142c-27.506,-3.872 -60.096,-7.264 -91.14,-8.678c-13.798,-0.668 -27.264,-0.942 -39.86,-0.942c-15.754,0 -30.142,0.428 -42.076,1.046Z" style="fill:url(#_Linear37);fill-rule:nonzero;"/><path d="M660.325,552.207c0,-0 -5.438,5.826 -11.25,5.028c-17.708,-20.49 -35.608,-40.818 -53.586,-61.07c-32.282,-36.366 -64.77,-72.62 -98.608,-107.55c-46.556,-48.058 -98.262,-91.842 -156.344,-125.386c-46.748,-26.996 -97.776,-45.87 -149.864,-59.616c61.452,16.218 125.856,35.462 180.094,69.27c18.51,11.54 36.018,24.6 53.008,38.258c36.964,29.716 71.204,62.628 103.578,97.252l132.972,143.814Z" style="fill:#005469;fill-rule:nonzero;"/></g><defs><linearGradient id="_Linear1" x1="0" y1="0" x2="1" y2="0" gradientUnits="userSpaceOnUse" gradientTransform="matrix(56.3889,236.342,-236.342,56.3889,439.577,142.001)"><stop offset="0" style="stop-color:#00add1;stop-opacity:1"/><stop offset="1" style="stop-color:#00627e;stop-opacity:1"/></linearGradient><linearGradient id="_Linear2" x1="0" y1="0" x2="1" y2="0" gradientUnits="userSpaceOnUse" gradientTransform="matrix(122.281,353.756,-353.756,122.281,230.732,-52.7627)"><stop offset="0" style="stop-color:#00add1;stop-opacity:1"/><stop offset="1" style="stop-color:#00627e;stop-opacity:1"/></linearGradient><linearGradient id="_Linear3" x1="0" y1="0" x2="1" y2="0" gradientUnits="userSpaceOnUse" gradientTransform="matrix(-2.69324,164.394,-164.394,-2.69324,555.498,277.963)"><stop offset="0" style="stop-color:#00add1;stop-opacity:1"/><stop offset="1" style="stop-color:#00627e;stop-opacity:1"/></linearGradient><linearGradient id="_Linear4" x1="0" y1="0" x2="1" y2="0" gradientUnits="userSpaceOnUse" gradientTransform="matrix(65.4193,287.035,-287.035,65.4193,471.909,131.479)"><stop offset="0" style="stop-color:#00add1;stop-opacity:1"/><stop offset="1" style="stop-color:#00627e;stop-opacity:1"/></linearGradient><linearGradient id="_Linear5" x1="0" y1="0" x2="1" y2="0" gradientUnits="userSpaceOnUse" gradientTransform="matrix(78.6381,127.005,-127.005,78.6381,446.141,205.344)"><stop offset="0" style="stop-color:#fff;stop-opacity:1"/><stop offset="1" style="stop-color:#000;stop-opacity:1"/></linearGradient><linearGradient id="_Linear6" x1="0" y1="0" x2="1" y2="0" gradientUnits="userSpaceOnUse" gradientTransform="matrix(48.0915,285.89,-285.89,48.0915,535.413,153.515)"><stop offset="0" style="stop-color:#00add1;stop-opacity:1"/><stop offset="1" style="stop-color:#00627e;stop-opacity:1"/></linearGradient><linearGradient id="_Linear7" x1="0" y1="0" x2="1" y2="0" gradientUnits="userSpaceOnUse" gradientTransform="matrix(44.091,262.108,-262.108,44.091,538.665,173.992)"><stop offset="0" style="stop-color:#fff;stop-opacity:1"/><stop offset="1" style="stop-color:#000;stop-opacity:1"/></linearGradient><linearGradient id="_Linear8" x1="0" y1="0" x2="1" y2="0" gradientUnits="userSpaceOnUse" gradientTransform="matrix(-110.549,10.6154,-10.6154,-110.549,323.104,218.598)"><stop offset="0" style="stop-color:#00add1;stop-opacity:1"/><stop offset="1" style="stop-color:#00627e;stop-opacity:1"/></linearGradient><linearGradient id="_Linear9" x1="0" y1="0" x2="1" y2="0" gradientUnits="userSpaceOnUse" gradientTransform="matrix(-230.138,-90.3205,90.3205,-230.138,373.299,296.696)"><stop offset="0" style="stop-color:#00add1;stop-opacity:1"/><stop offset="1" style="stop-color:#00627e;stop-opacity:1"/></linearGradient><linearGradient id="_Linear10" x1="0" y1="0" x2="1" y2="0" gradientUnits="userSpaceOnUse" gradientTransform="matrix(-248.98,55.5954,-55.5954,-248.98,454.61,223.134)"><stop offset="0" style="stop-color:#00add1;stop-opacity:1"/><stop offset="1" style="stop-color:#00627e;stop-opacity:1"/></linearGradient><linearGradient id="_Linear11" x1="0" y1="0" x2="1" y2="0" gradientUnits="userSpaceOnUse" gradientTransform="matrix(-162.565,36.2995,-36.2995,-162.565,401.177,237.43)"><stop offset="0" style="stop-color:#fff;stop-opacity:1"/><stop offset="1" style="stop-color:#000;stop-opacity:1"/></linearGradient><linearGradient id="_Linear12" x1="0" y1="0" x2="1" y2="0" gradientUnits="userSpaceOnUse" gradientTransform="matrix(-157.014,28.022,-28.022,-157.014,480.937,271.811)"><stop offset="0" style="stop-color:#00add1;stop-opacity:1"/><stop offset="1" style="stop-color:#00627e;stop-opacity:1"/></linearGradient><linearGradient id="_Linear13" x1="0" y1="0" x2="1" y2="0" gradientUnits="userSpaceOnUse" gradientTransform="matrix(-154.079,23.9403,-23.9403,-154.079,503.993,325.258)"><stop offset="0" style="stop-color:#00add1;stop-opacity:1"/><stop offset="1" style="stop-color:#00627e;stop-opacity:1"/></linearGradient><linearGradient id="_Linear14" x1="0" y1="0" x2="1" y2="0" gradientUnits="userSpaceOnUse" gradientTransform="matrix(203.259,345.364,-345.364,203.259,147.551,-42.3004)"><stop offset="0" style="stop-color:#00add1;stop-opacity:1"/><stop offset="1" style="stop-color:#00627e;stop-opacity:1"/></linearGradient><linearGradient id="_Linear15" x1="0" y1="0" x2="1" y2="0" gradientUnits="userSpaceOnUse" gradientTransform="matrix(192.63,149.613,-149.613,192.63,84.237,92.2406)"><stop offset="0" style="stop-color:#00add1;stop-opacity:1"/><stop offset="1" style="stop-color:#00627e;stop-opacity:1"/></linearGradient><linearGradient id="_Linear16" x1="0" y1="0" x2="1" y2="0" gradientUnits="userSpaceOnUse" gradientTransform="matrix(180.043,139.836,-139.836,180.043,83.977,96.8527)"><stop offset="0" style="stop-color:#fff;stop-opacity:1"/><stop offset="1" style="stop-color:#000;stop-opacity:1"/></linearGradient><linearGradient id="_Linear17" x1="0" y1="0" x2="1" y2="0" gradientUnits="userSpaceOnUse" gradientTransform="matrix(19.2963,214.582,-214.582,19.2963,432.137,132.043)"><stop offset="0" style="stop-color:#00add1;stop-opacity:1"/><stop offset="1" style="stop-color:#00627e;stop-opacity:1"/></linearGradient><linearGradient id="_Linear18" x1="0" y1="0" x2="1" y2="0" gradientUnits="userSpaceOnUse" gradientTransform="matrix(191.004,275.7,-275.7,191.004,105.569,-12.9051)"><stop offset="0" style="stop-color:#00add1;stop-opacity:1"/><stop offset="1" style="stop-color:#00627e;stop-opacity:1"/></linearGradient><linearGradient id="_Linear19" x1="0" y1="0" x2="1" y2="0" gradientUnits="userSpaceOnUse" gradientTransform="matrix(22.8077,256.561,-256.561,22.8077,354.438,23.7564)"><stop offset="0" style="stop-color:#00add1;stop-opacity:1"/><stop offset="1" style="stop-color:#00627e;stop-opacity:1"/></linearGradient><linearGradient id="_Linear20" x1="0" y1="0" x2="1" y2="0" gradientUnits="userSpaceOnUse" gradientTransform="matrix(21.0592,236.892,-236.892,21.0592,349.765,30.1318)"><stop offset="0" style="stop-color:#fff;stop-opacity:1"/><stop offset="1" style="stop-color:#000;stop-opacity:1"/></linearGradient><linearGradient id="_Linear21" x1="0" y1="0" x2="1" y2="0" gradientUnits="userSpaceOnUse" gradientTransform="matrix(125.35,318.589,-318.589,125.35,171.205,-82.2683)"><stop offset="0" style="stop-color:#00add1;stop-opacity:1"/><stop offset="1" style="stop-color:#00627e;stop-opacity:1"/></linearGradient><linearGradient id="_Linear22" x1="0" y1="0" x2="1" y2="0" gradientUnits="userSpaceOnUse" gradientTransform="matrix(117.603,298.899,-298.899,117.603,174.207,-70.2805)"><stop offset="0" style="stop-color:#fff;stop-opacity:1"/><stop offset="1" style="stop-color:#000;stop-opacity:1"/></linearGradient><linearGradient id="_Linear23" x1="0" y1="0" x2="1" y2="0" gradientUnits="userSpaceOnUse" gradientTransform="matrix(-253.674,18.7302,-18.7302,-253.674,459.201,239.113)"><stop offset="0" style="stop-color:#00add1;stop-opacity:1"/><stop offset="1" style="stop-color:#00627e;stop-opacity:1"/></linearGradient><linearGradient id="_Linear24" x1="0" y1="0" x2="1" y2="0" gradientUnits="userSpaceOnUse" gradientTransform="matrix(-193.707,14.3025,-14.3025,-193.707,419.54,235.607)"><stop offset="0" style="stop-color:#fff;stop-opacity:1"/><stop offset="1" style="stop-color:#000;stop-opacity:1"/></linearGradient><linearGradient id="_Linear25" x1="0" y1="0" x2="1" y2="0" gradientUnits="userSpaceOnUse" gradientTransform="matrix(-71.2153,159.322,-159.322,-71.2153,455.552,130.81)"><stop offset="0" style="stop-color:#00add1;stop-opacity:1"/><stop offset="1" style="stop-color:#00627e;stop-opacity:1"/></linearGradient><linearGradient id="_Linear26" x1="0" y1="0" x2="1" y2="0" gradientUnits="userSpaceOnUse" gradientTransform="matrix(-128.424,36.3887,-36.3887,-128.424,391.126,247.05)"><stop offset="0" style="stop-color:#00add1;stop-opacity:1"/><stop offset="1" style="stop-color:#00627e;stop-opacity:1"/></linearGradient><linearGradient id="_Linear27" x1="0" y1="0" x2="1" y2="0" gradientUnits="userSpaceOnUse" gradientTransform="matrix(-93.3533,26.4514,-26.4514,-93.3533,374,255.895)"><stop offset="0" style="stop-color:#fff;stop-opacity:1"/><stop offset="1" style="stop-color:#000;stop-opacity:1"/></linearGradient><linearGradient id="_Linear28" x1="0" y1="0" x2="1" y2="0" gradientUnits="userSpaceOnUse" gradientTransform="matrix(-170.595,10.1227,-10.1227,-170.595,517.316,314.637)"><stop offset="0" style="stop-color:#00add1;stop-opacity:1"/><stop offset="1" style="stop-color:#00627e;stop-opacity:1"/></linearGradient><linearGradient id="_Linear29" x1="0" y1="0" x2="1" y2="0" gradientUnits="userSpaceOnUse" gradientTransform="matrix(-136.658,8.10898,-8.10898,-136.658,427.907,324.06)"><stop offset="0" style="stop-color:#fff;stop-opacity:1"/><stop offset="1" style="stop-color:#000;stop-opacity:1"/></linearGradient><linearGradient id="_Linear30" x1="0" y1="0" x2="1" y2="0" gradientUnits="userSpaceOnUse" gradientTransform="matrix(-244.479,1.83063,-1.83063,-244.479,619.317,376.61)"><stop offset="0" style="stop-color:#00add1;stop-opacity:1"/><stop offset="1" style="stop-color:#00627e;stop-opacity:1"/></linearGradient><linearGradient id="_Linear31" x1="0" y1="0" x2="1" y2="0" gradientUnits="userSpaceOnUse" gradientTransform="matrix(-58.609,44.6882,-44.6882,-58.609,432.78,313.184)"><stop offset="0" style="stop-color:#fff;stop-opacity:1"/><stop offset="1" style="stop-color:#000;stop-opacity:1"/></linearGradient><linearGradient id="_Linear32" x1="0" y1="0" x2="1" y2="0" gradientUnits="userSpaceOnUse" gradientTransform="matrix(-171.409,10.6256,-10.6256,-171.409,613.504,386.156)"><stop offset="0" style="stop-color:#00add1;stop-opacity:1"/><stop offset="1" style="stop-color:#00627e;stop-opacity:1"/></linearGradient><linearGradient id="_Linear33" x1="0" y1="0" x2="1" y2="0" gradientUnits="userSpaceOnUse" gradientTransform="matrix(-134.439,14.7696,-14.7696,-134.439,570.704,413.222)"><stop offset="0" style="stop-color:#00add1;stop-opacity:1"/><stop offset="1" style="stop-color:#00627e;stop-opacity:1"/></linearGradient><linearGradient id="_Linear34" x1="0" y1="0" x2="1" y2="0" gradientUnits="userSpaceOnUse" gradientTransform="matrix(-110.333,12.1213,-12.1213,-110.333,554.275,418.667)"><stop offset="0" style="stop-color:#fff;stop-opacity:1"/><stop offset="1" style="stop-color:#000;stop-opacity:1"/></linearGradient><linearGradient id="_Linear35" x1="0" y1="0" x2="1" y2="0" gradientUnits="userSpaceOnUse" gradientTransform="matrix(-336.688,-46.8133,46.8133,-336.688,716.971,506.863)"><stop offset="0" style="stop-color:#00add1;stop-opacity:1"/><stop offset="1" style="stop-color:#00627e;stop-opacity:1"/></linearGradient><linearGradient id="_Linear36" x1="0" y1="0" x2="1" y2="0" gradientUnits="userSpaceOnUse" gradientTransform="matrix(-271.248,-37.7144,37.7144,-271.248,673.484,499.915)"><stop offset="0" style="stop-color:#fff;stop-opacity:1"/><stop offset="1" style="stop-color:#000;stop-opacity:1"/></linearGradient><linearGradient id="_Linear37" x1="0" y1="0" x2="1" y2="0" gradientUnits="userSpaceOnUse" gradientTransform="matrix(-203.057,0.893156,-0.893156,-203.057,700.049,488.342)"><stop offset="0" style="stop-color:#00add1;stop-opacity:1"/><stop offset="1" style="stop-color:#00627e;stop-opacity:1"/></linearGradient></defs></svg>