<?xml version="1.0" encoding="UTF-8" standalone="no"?><!DOCTYPE svg PUBLIC "-//W3C//DTD SVG 1.1//EN" "http://www.w3.org/Graphics/SVG/1.1/DTD/svg11.dtd"><svg width="100%" height="100%" viewBox="0 0 374 284" version="1.1" xmlns="http://www.w3.org/2000/svg" xmlns:xlink="http://www.w3.org/1999/xlink" xml:space="preserve" xmlns:serif="http://www.serif.com/" style="fill-rule:evenodd;clip-rule:evenodd;stroke-linejoin:round;stroke-miterlimit:2;"><g id="hoja-arriba-der"><path d="M118.27,84.422c5.804,0.81 11.57,1.874 17.264,3.256c2.064,0.5 16.898,4.19 21.294,8.038l0.014,-0c1.224,1.096 1.628,2.19 0.678,3.222c-0.418,0.466 -1.03,0.724 -1.642,0.87c-2.802,0.692 -5.816,-0.63 -8.232,-1.982c-8.408,-4.672 -16.766,-6.814 -26.35,-7.684c-8.148,-0.756 -16.348,-1.512 -24.498,-0.82c-23.772,1.996 -44.84,15.866 -68.032,21.484c-3.93,0.968 -7.988,1.692 -11.612,3.496c-6.202,3.092 -10.614,9.134 -12.628,15.768c-2.014,6.62 -1.804,13.756 -0.37,20.536c1.384,6.604 3.786,13.948 0.29,19.73c1.934,-3.206 7.392,-6.216 10.322,-8.552c3.852,-3.076 7.764,-6.088 11.776,-8.986c7.826,-5.686 15.962,-10.954 24.496,-15.528c9.762,-5.218 20.15,-9.92 30.958,-12.854c5.49,-1.48 11.128,-2.512 16.83,-2.832c3.254,-0.194 6.732,-0.644 9.906,0.32c4.638,1.402 4.46,5.622 0.628,8.15c-7.812,5.154 -19.006,5.752 -28.072,6.282c-8.746,0.516 -17.428,1.966 -25.95,3.978c-21.002,4.944 -41.924,18.024 -48.206,38.672c-1.546,5.09 -2.576,11.08 -7.134,13.85c13.578,-1.126 26.302,-4.09 38.51,-10.114c8.022,-3.962 15.366,-8.762 24.708,-8.392c1.48,0.066 3.01,0.242 4.348,0.902c1.338,0.662 2.464,1.886 2.706,3.35c0.774,4.768 -5.734,6.314 -9.148,6.83c-14.046,2.094 -23.532,3.382 -35.95,10.888c-2.32,1.402 -4.59,2.994 -6.248,5.136c-3.044,3.948 -2.706,9.408 -1.128,13.966l-0.048,-0c0.306,19.102 -13.802,19.552 -13.802,19.552c0.482,0.502 1.174,1.048 1.964,1.628l0.032,-0c1.916,1.4 4.414,2.9 6.2,3.93c-0,0.016 -0,0.032 -0.016,0.048c0,-0 13.224,8.906 26.866,8.906c7.634,-0 15.396,-2.786 21.05,-11.484l0.146,-0.756c0.37,-0.676 0.71,-1.386 1.03,-2.206c2.206,-5.558 3.108,-11.532 4.67,-17.298c1.58,-5.766 3.978,-11.566 8.458,-15.528c0.934,-0.804 2.06,-1.578 3.284,-1.432c1.578,0.192 2.61,1.9 2.594,3.478c-0.032,1.578 -0.854,3.028 -1.738,4.332c-3.288,4.898 -7.83,9.166 -9.326,14.866c-0.274,1.032 -0.436,2.096 -0.518,3.174c-0.078,0.484 -0.11,0.774 -0.11,0.774c-3.014,17.506 -10.938,27.074 -12.468,28.798c-2.4,1.98 -4.638,4.074 -6.25,6.618c-0.546,0.694 -0.902,1.13 -0.982,1.24c0.048,-0 0.178,-0.048 0.37,-0.144c-0.144,0.29 -0.306,0.548 -0.434,0.838c3.816,-1.482 6.556,-2.48 10.566,-1.66c12.596,2.594 26.382,-1.69 35.304,-10.934c6.106,-6.332 9.826,-14.512 13.434,-22.502c5.67,-12.546 11.402,-25.432 12.32,-39.154c0.274,-4.284 0.146,-8.616 1.466,-12.756c0.5,-1.53 2.014,-2.498 3.078,-0.756c1.498,2.414 0.87,6.682 0.658,9.372c-0.644,8.102 -2.448,16.316 -4.234,24.224c-1.82,8.07 -4.156,16.042 -7.378,23.676c-5.38,12.788 -13.384,24.692 -24.432,33.068c3.542,4.846 9.132,7.906 14.978,9.292c5.832,1.402 11.918,1.24 17.878,0.646c9.278,-0.936 18.91,-3.19 25.754,-9.504c6.506,-5.992 9.568,-14.754 12.144,-23.21c3.27,-10.774 6.136,-21.712 7.376,-32.904c1.774,-15.962 0.228,-32.068 -1.448,-48.046c-0.258,-2.432 -0.5,-5.01 0.468,-7.264c0.95,-2.27 3.542,-4.044 5.846,-3.22c2.816,1.012 3.302,4.75 3.092,7.746c-0.468,6.892 -1.982,13.674 -2.496,20.552c-0.742,9.872 0.564,19.762 0.53,29.65c-0.064,18.202 -4.67,36.032 -9.292,53.636c-1.466,5.588 -3.786,12.788 -9.148,14.962c6.99,4.316 15.736,4.46 23.9,3.64c2.48,-0.242 4.96,-0.498 7.426,-0.804c9.744,-1.256 20.246,-3.48 27.414,-10.696c6.442,-6.458 10.872,-14.608 13.078,-23.45c4.316,-17.33 0.628,-35.966 -4.366,-52.604c-4.38,-14.576 -9.728,-28.974 -11.886,-44.05c-0.404,-2.804 -0.468,-6.186 1.77,-7.924c8.908,-6.862 17.412,31.054 18.17,34.628c0.014,0.098 0.048,0.208 0.062,0.322c3.69,17.684 4.366,35.95 2.738,53.924c-0.996,10.952 -2.864,21.824 -5.458,32.502c-0.564,0.63 -1.144,1.242 -1.772,1.804c8.23,0.952 16.572,-0.934 24.208,-4.124c7.634,-3.188 14.656,-7.65 21.648,-12.08c15.896,-10.098 21.292,-27.524 18.956,-45.58c-2.882,-22.26 -14.318,-41.972 -23.418,-62.106c-0.694,-1.514 -1.368,-3.06 -1.466,-4.72c-0.114,-1.658 0.482,-3.46 1.884,-4.362c1.69,-1.096 4.06,-0.518 5.574,0.804c1.53,1.338 2.366,3.252 3.124,5.12c3.302,8.152 5.652,16.656 7.618,25.208c1.916,8.246 3.076,16.75 6.33,24.61c2.044,4.96 4.46,9.81 5.766,15.012c2.366,9.358 0.886,18.796 -3.85,27.138c2.756,-1.208 5.396,-2.688 7.876,-4.43c5.928,-4.138 14.014,-4.122 20.246,-8.326c5.88,-3.962 10.694,-9.502 13.69,-15.944c5.266,-11.322 8.538,-24.772 6.78,-37.366c6.444,-2.048 10.26,-9.342 12.16,-16.092c2.126,-7.488 3.174,-15.366 2.338,-23.096c-1.868,-17.104 -13.096,-32.374 -27.704,-41.458c-0.398,-0.246 -0.796,-0.49 -1.196,-0.728l-208.604,-0Zm222.186,76.928c-2.012,-8.296 -6.782,-15.56 -12.484,-21.81c-6.054,-6.618 -13.704,-11.37 -19.696,-18.022c-1.694,-1.884 -3.318,-4.188 -2.996,-6.7c0.29,-2.286 2.24,-4.122 4.428,-4.8c10.776,-3.3 19.022,10.034 22.646,17.976c2.288,4.992 4.236,10.13 5.846,15.38c1.806,5.944 3.158,12.322 2.336,18.394c-0.032,-0.13 -0.048,-0.274 -0.08,-0.418Zm-310.488,-76.928c-1.876,7.128 -4.406,13.786 -10.174,18.09c0.114,-0.016 0.212,-0.048 0.322,-0.064c11.372,-2.334 22.792,-4.688 33.744,-8.584c8.068,-2.868 15.832,-6.604 24.094,-8.906c0.686,-0.192 1.376,-0.37 2.068,-0.536l-50.054,-0Z" style="fill:url(#_Linear1);fill-rule:nonzero;"/><g opacity="0.4"><path d="M353.438,149.71c-1.9,6.748 -5.718,14.044 -12.16,16.09c1.756,12.594 -1.514,26.044 -6.78,37.366c-2.996,6.442 -7.812,11.984 -13.69,15.946c-6.234,4.204 -14.32,4.188 -20.246,8.326c-2.48,1.74 -5.122,3.222 -7.876,4.43c4.736,-8.344 6.216,-17.782 3.848,-27.14c-1.304,-5.202 -3.72,-10.05 -5.764,-15.01c-3.254,-7.86 -4.414,-16.364 -6.33,-24.612c-1.966,-8.552 -4.318,-17.056 -7.62,-25.206c-0.756,-1.868 -1.594,-3.784 -3.124,-5.122c-1.514,-1.32 -3.882,-1.9 -5.572,-0.804c-1.402,0.902 -1.998,2.706 -1.886,4.364c0.098,1.66 0.774,3.206 1.466,4.72c9.1,20.132 20.536,39.846 23.42,62.106c2.334,18.054 -3.06,35.482 -18.958,45.58c-6.99,4.43 -14.012,8.89 -21.646,12.08c-7.636,3.19 -15.978,5.074 -24.208,4.124c0.628,-0.564 1.208,-1.176 1.772,-1.804c2.592,-10.68 4.46,-21.55 5.46,-32.504c1.626,-17.974 0.95,-36.238 -2.738,-53.924c-0.016,-0.112 -0.05,-0.224 -0.066,-0.322c-0.756,-3.576 -9.26,-41.49 -18.168,-34.628c-2.238,1.74 -2.174,5.122 -1.77,7.924c2.158,15.076 7.504,29.474 11.886,44.05c4.992,16.638 8.68,35.274 4.364,52.604c-2.206,8.842 -6.636,16.992 -13.078,23.45c-7.168,7.216 -17.668,9.44 -27.412,10.696c-2.466,0.306 -4.946,0.564 -7.426,0.804c-8.166,0.822 -16.912,0.678 -23.902,-3.64c5.364,-2.174 7.682,-9.372 9.148,-14.962c4.624,-17.604 9.23,-35.434 9.294,-53.634c0.032,-9.888 -1.272,-19.778 -0.532,-29.652c0.516,-6.878 2.03,-13.658 2.498,-20.552c0.208,-2.994 -0.274,-6.732 -3.094,-7.746c-2.302,-0.822 -4.896,0.95 -5.846,3.22c-0.966,2.256 -0.724,4.832 -0.466,7.264c1.674,15.978 3.22,32.084 1.448,48.046c-1.24,11.194 -4.106,22.13 -7.376,32.906c-2.578,8.456 -5.638,17.216 -12.144,23.208c-6.846,6.314 -16.478,8.568 -25.754,9.504c-5.96,0.596 -12.048,0.756 -17.878,-0.646c-5.846,-1.384 -11.436,-4.444 -14.98,-9.292c11.05,-8.376 19.054,-20.278 24.434,-33.066c3.222,-7.636 5.556,-15.608 7.376,-23.676c1.788,-7.91 3.592,-16.124 4.236,-24.224c0.21,-2.69 0.838,-6.958 -0.66,-9.374c-1.062,-1.74 -2.576,-0.774 -3.076,0.756c-1.32,4.14 -1.192,8.472 -1.466,12.756c-0.918,13.724 -6.652,26.608 -12.322,39.154c-3.606,7.99 -7.328,16.172 -13.432,22.502c-8.922,9.244 -22.71,13.528 -35.304,10.936c-4.012,-0.822 -6.75,0.176 -10.566,1.658c0.128,-0.29 0.29,-0.548 0.434,-0.836c-0.192,0.096 -0.322,0.144 -0.37,0.144c0.08,-0.112 0.434,-0.548 0.982,-1.24c1.61,-2.544 3.85,-4.638 6.25,-6.62c1.53,-1.724 9.454,-11.29 12.466,-28.798c0,-0 0.032,-0.29 0.112,-0.774c0.082,-1.078 0.242,-2.142 0.516,-3.172c1.498,-5.702 6.04,-9.97 9.326,-14.866c0.886,-1.304 1.708,-2.754 1.74,-4.332c0.016,-1.58 -1.016,-3.286 -2.594,-3.48c-1.224,-0.144 -2.352,0.628 -3.286,1.434c-4.478,3.962 -6.878,9.76 -8.456,15.526c-1.562,5.766 -2.464,11.742 -4.67,17.298c-0.322,0.822 -0.66,1.53 -1.032,2.208l-0.144,0.756c-5.654,8.698 -13.416,11.484 -21.05,11.484c-13.642,-0 -26.866,-8.906 -26.866,-8.906c0.016,-0.018 0.016,-0.034 0.016,-0.05c-1.788,-1.03 -4.284,-2.528 -6.202,-3.93c4.362,3.188 12.052,1.022 16.21,-1.066c5.604,-2.816 10.462,-7.07 14.9,-11.442c3.426,-3.372 6.644,-6.954 9.738,-10.632c2.904,-3.45 5.296,-7.284 8.44,-10.532c5.49,-5.668 12.188,-9.874 18.502,-14.538c5.856,-4.326 11.748,-8.602 17.672,-12.834c14.966,-10.688 30.128,-21.102 45.554,-31.116c16.078,-10.436 32.44,-20.508 49.38,-29.492c3.154,-1.672 6.328,-3.304 9.53,-4.878c-0,-0 55.116,-31.972 83.174,-39.074c-0.13,0.74 -0.274,1.466 -0.404,2.19c17.186,-0.466 34.822,2.9 49.432,11.982c14.608,9.086 25.834,24.354 27.702,41.458c0.838,7.732 -0.21,15.608 -2.336,23.098Z" style="fill:url(#_Linear2);fill-rule:nonzero;"/></g><path d="M4.257,235.266c-0,0 12.128,8.792 38.2,-20.162c-0,0 18.04,-21.828 39.262,-36.228c-0,0 88.376,-72.46 197.52,-110.66c-0,0 41.838,-22.74 89.588,-68.216c-0,0 6.368,5.912 3.638,10.006c-0,0 -43.656,44.112 -91.408,63.212c-0,0 -88.678,30.47 -179.632,96.41c-0,0 -39.11,28.65 -49.57,41.384c-0,0 -25.618,36.23 -47.598,24.254" style="fill:#005469;fill-rule:nonzero;"/><g opacity="0.4"><path d="M158.004,96.166c-0,-0 -0.436,-0.176 -1.16,-0.45l-0.016,-0c-4.398,-3.85 -19.232,-7.538 -21.294,-8.036c-10.42,-2.53 -21.082,-3.996 -31.76,-4.784c-8.618,-0.628 -17.444,-0.274 -25.82,2.06c-8.262,2.304 -16.026,6.04 -24.094,8.908c-10.952,3.898 -22.372,6.248 -33.742,8.584l42.986,-25.69c-0,-0 17.59,-13.336 54.874,-3.028c0,-0 32.746,5.768 40.026,22.436Z" style="fill:url(#_Linear3);fill-rule:nonzero;"/></g></g><defs><linearGradient id="_Linear1" x1="0" y1="0" x2="1" y2="0" gradientUnits="userSpaceOnUse" gradientTransform="matrix(54.5724,110.964,-110.964,54.5724,81.3596,-22.8238)"><stop offset="0" style="stop-color:#00add1;stop-opacity:1"/><stop offset="1" style="stop-color:#00627e;stop-opacity:1"/></linearGradient><linearGradient id="_Linear2" x1="0" y1="0" x2="1" y2="0" gradientUnits="userSpaceOnUse" gradientTransform="matrix(-65.4863,-148.557,148.557,-65.4863,225.269,279.543)"><stop offset="0" style="stop-color:#fff;stop-opacity:1"/><stop offset="1" style="stop-color:#000;stop-opacity:1"/></linearGradient><linearGradient id="_Linear3" x1="0" y1="0" x2="1" y2="0" gradientUnits="userSpaceOnUse" gradientTransform="matrix(137.886,0,0,137.886,20.1172,86.1346)"><stop offset="0" style="stop-color:#fff;stop-opacity:1"/><stop offset="1" style="stop-color:#000;stop-opacity:1"/></linearGradient></defs></svg>