<?xml version="1.0" encoding="UTF-8" standalone="no"?><!DOCTYPE svg PUBLIC "-//W3C//DTD SVG 1.1//EN" "http://www.w3.org/Graphics/SVG/1.1/DTD/svg11.dtd"><svg width="100%" height="100%" viewBox="0 0 433 555" version="1.1" xmlns="http://www.w3.org/2000/svg" xmlns:xlink="http://www.w3.org/1999/xlink" xml:space="preserve" xmlns:serif="http://www.serif.com/" style="fill-rule:evenodd;clip-rule:evenodd;stroke-linejoin:round;stroke-miterlimit:2;"><g id="hojas-palm-izq"><path d="M3.982,0c-0,0 -5.23,6.232 -3.702,12.026c22.964,15.406 45.784,31.028 68.54,46.738c40.856,28.208 81.628,56.642 121.224,86.606c54.48,41.226 105.266,88.2 146.462,142.908c33.158,44.032 58.614,93.408 79.002,144.496c-24.056,-60.272 -51.544,-123.158 -92.534,-173.936c-13.99,-17.332 -29.396,-33.456 -45.346,-48.982c-34.698,-33.778 -72.3,-64.4 -111.406,-92.918l-162.24,-116.938Z" style="fill:#005469;fill-rule:nonzero;"/><path d="M109.36,102.866c3.236,10.074 6.808,22.236 10.284,35.914c7.01,27.306 13.532,60.622 18.122,93.098c9.448,64.72 10.61,125.598 10.624,126.01c0.008,-0.204 2.438,-15.976 4.166,-40.306c1.76,-24.47 2.56,-57.668 -0.076,-91.824c-2.544,-34.122 -8.588,-69.164 -17.936,-96.582c-4.64,-13.702 -10.062,-25.494 -15.876,-34.25c-5.768,-8.792 -12.07,-14.368 -17.254,-16.292c1.776,6.232 4.734,14.11 7.946,24.232Zm39.03,255.024l-0,-0.002l-0,0.002Zm-0,0l0.002,0l-0,-0.002l-0.002,0l-0,0.002Z" style="fill:url(#_Linear1);fill-rule:nonzero;"/><path d="M58.888,126.962c5.896,20.564 11.464,42.688 16.166,64.516c15.036,68.212 20.946,132.962 20.976,133.314c-0,-0.09 0.36,-4.544 0.7,-12.338c0.006,-0.058 0.004,-0.108 0.008,-0.164c0.332,-7.498 0.648,-18.032 0.642,-30.722c-0.01,-26.182 -1.702,-61.584 -7.13,-97.74c-5.328,-36.122 -14.442,-72.964 -26.496,-101.434c-1.578,-3.744 -3.204,-7.344 -4.866,-10.778l-0,55.346Zm37.144,197.832c-0,0 -0.002,0 -0.002,-0.002c-0,0.002 -0,0.002 0.002,0.002Zm-0,0l0.002,0l-0,-0.002l-0.002,0l-0,0.002Z" style="fill:url(#_Linear2);fill-rule:nonzero;"/><g opacity="0.4"><path d="M25.232,32.804c2.376,6.206 5.848,13.87 9.696,23.518c4.214,10.478 8.946,23.148 13.692,37.442c9.56,28.53 19.058,63.486 26.434,97.712c15.082,68.426 20.982,133.368 20.978,133.318c-0.01,-0.002 0.354,-4.468 0.698,-12.342c0.006,-0.056 0.002,-0.106 0.01,-0.162c0.158,-7.052 0.238,-15.872 0.09,-26.028c-0.352,-26.93 -2.572,-63.308 -8.634,-100.41c-5.96,-37.084 -15.836,-74.842 -28.606,-103.946c-6.346,-14.556 -13.376,-26.946 -20.554,-35.984c-4.652,-5.928 -9.428,-10.324 -13.804,-13.118Z" style="fill:url(#_Linear3);fill-rule:nonzero;"/></g><path d="M125.39,102.628c2.542,4.336 5.5,9.29 8.71,14.986c5.608,9.9 12.022,21.926 18.652,35.56c13.314,27.212 27.394,60.854 39.216,94.068c17.4,48.13 29.648,95.124 35.042,117.254c2.05,8.384 3.112,13.214 3.122,13.216c-0.028,-0.004 -0.754,-17.152 -4.092,-43.262c-3.31,-26.1 -9.498,-61.166 -19.56,-96.51c-9.968,-35.316 -23.87,-70.856 -39.716,-97.72c-7.878,-13.434 -16.202,-24.702 -24.312,-32.716c-8.068,-8.068 -16.028,-12.658 -22.022,-13.656c1.37,2.64 3.052,5.542 4.96,8.78Z" style="fill:url(#_Linear4);fill-rule:nonzero;"/><g opacity="0.4"><path d="M125.39,102.626c2.542,4.338 5.5,9.29 8.708,14.988c5.61,9.9 12.024,21.926 18.654,35.558c13.314,27.214 27.394,60.856 39.214,94.068c17.402,48.132 29.648,95.126 35.044,117.256c-0.606,-6.538 -1.446,-14.466 -2.598,-23.468c-3.31,-26.1 -9.498,-61.156 -19.56,-96.5c-9.968,-35.316 -23.87,-70.856 -39.718,-97.72c-7.876,-13.432 -16.2,-24.702 -24.31,-32.716c-5.38,-5.374 -10.708,-9.202 -15.434,-11.466Z" style="fill:url(#_Linear5);fill-rule:nonzero;"/></g><path d="M69.822,62.532c0.082,0.32 0.164,0.652 0.242,0.982c0.49,1.976 1.066,4.042 1.724,6.168c0.634,2.152 1.202,4.522 1.926,6.89c0.692,2.374 1.472,4.838 2.3,7.366c0.428,1.25 0.86,2.532 1.308,3.83c0.426,1.312 0.818,2.692 1.242,4.058c1.664,5.536 3.692,11.2 5.622,17.296c7.858,24.238 16.57,53.264 23.886,81.67c7.38,28.368 13.426,56.012 17.466,76.592c1.218,6.298 2.264,11.93 3.144,16.7c1.906,10.388 2.98,16.76 3.088,17.318c0.042,-0.874 0.9,-15.072 0.498,-36.446c-0.396,-22.064 -2.308,-51.846 -7.328,-82.168c-4.93,-30.3 -13.038,-61.112 -23.474,-85.046c-2.568,-6.004 -5.45,-11.484 -8.138,-16.57c-0.688,-1.26 -1.334,-2.514 -2.06,-3.7c-0.74,-1.156 -1.472,-2.3 -2.2,-3.412c-1.468,-2.216 -2.9,-4.31 -4.318,-6.256c-1.432,-1.926 -2.766,-3.78 -4.224,-5.374c-1.496,-1.562 -2.934,-2.998 -4.348,-4.248c-2.822,-2.522 -5.462,-4.39 -7.898,-5.554c0.176,3.002 0.716,6.33 1.542,9.904Z" style="fill:url(#_Linear6);fill-rule:nonzero;"/><g opacity="0.4"><path d="M69.822,62.532c0.082,0.32 0.162,0.652 0.242,0.982c0.49,1.976 1.066,4.042 1.726,6.168c0.632,2.152 1.2,4.52 1.924,6.89c0.692,2.374 1.47,4.838 2.3,7.366c0.428,1.25 0.86,2.532 1.308,3.83c0.426,1.312 0.818,2.692 1.242,4.056c1.666,5.538 3.692,11.202 5.62,17.298c7.86,24.238 16.572,53.264 23.89,81.67c7.378,28.366 13.424,56.012 17.464,76.594c1.218,6.296 2.266,11.928 3.142,16.698c0.002,-3.826 -0.022,-8.046 -0.108,-12.582c-0.396,-22.064 -2.31,-51.836 -7.332,-82.156c-4.928,-30.312 -13.036,-61.124 -23.476,-85.048c-2.564,-6.014 -5.446,-11.484 -8.126,-16.568c-0.698,-1.262 -1.346,-2.516 -2.058,-3.698c-0.75,-1.17 -1.484,-2.304 -2.21,-3.426c-1.46,-2.204 -2.9,-4.3 -4.32,-6.244c-1.43,-1.938 -2.764,-3.79 -4.224,-5.376c-1.494,-1.572 -2.934,-2.996 -4.348,-4.248c-0.904,-0.812 -1.792,-1.548 -2.656,-2.206Z" style="fill:url(#_Linear7);fill-rule:nonzero;"/></g><path d="M230.574,197.962c3.942,8.97 8.51,19.616 13.354,31.394c9.758,23.664 20.45,52.292 29.666,80.322c18.598,55.834 30.834,109.084 30.904,109.346c-0.026,-0.134 -0.208,-14.402 -2.232,-36.132c-2.01,-21.824 -6.07,-51.17 -13.228,-80.944c-7.084,-29.764 -17.302,-59.912 -29.522,-83.288c-6.088,-11.68 -12.638,-21.678 -19.224,-29.072c-6.546,-7.422 -13.25,-12.122 -18.67,-13.574c1.86,5.816 5.07,12.988 8.952,21.948Zm73.924,221.064l-0,-0.002l-0,0.002Zm-0,0l0.002,0l-0,-0.002l-0.002,0l-0,0.002Z" style="fill:url(#_Linear8);fill-rule:nonzero;"/><path d="M282.514,238.516c3.028,9.948 6.672,21.466 10.132,34.382c7.35,26.822 14.13,59.464 18.114,91.636c4.118,32.12 5.672,63.552 5.862,86.894c0.19,21.514 -0.61,36.154 -0.706,38.326c-0.014,0.178 -0.02,0.272 -0.02,0.272c0.01,-0.146 4.29,-15.522 8.076,-39.534c3.832,-24.094 6.882,-56.97 5.43,-90.954c-1.274,-33.95 -7.352,-68.868 -17.648,-96.106c-10.116,-27.362 -24.624,-46.354 -35.938,-51.668c0.836,6.958 3.412,15.94 6.698,26.752Z" style="fill:url(#_Linear9);fill-rule:nonzero;"/><g opacity="0.4"><path d="M282.514,238.518c3.028,9.946 6.67,21.464 10.13,34.38c7.352,26.822 14.13,59.464 18.118,91.638c4.116,32.118 5.67,63.55 5.86,86.89c0.19,21.516 -0.61,36.156 -0.708,38.326c1.202,-5.852 2.52,-12.928 3.786,-20.964c3.844,-24.092 6.884,-56.98 5.442,-90.952c-1.272,-33.96 -7.352,-68.868 -17.648,-96.116c-7.048,-19.06 -16.236,-34.062 -24.98,-43.202Z" style="fill:url(#_Linear10);fill-rule:nonzero;"/></g><path d="M180.08,142.44c5.248,13.778 14.904,32.32 24.73,55.502c11.946,27.79 24.256,61.898 33.62,95.896c9.502,33.91 16.26,67.44 20.282,92.472c1.504,9.314 2.658,17.46 3.522,24.002c1.442,10.962 2.058,17.454 2.076,17.546c-0.018,-0.146 1.822,-17.348 1.73,-43.766c-0.06,-26.51 -2.394,-62.378 -9.51,-98.758c-6.924,-36.38 -18.938,-73.094 -33.958,-100.856c-14.858,-27.906 -32.776,-46.08 -45.124,-49.926c0.668,2.422 1.56,5.052 2.632,7.888Zm84.232,285.418l-0.002,0l0.002,0Zm-0,0l0.002,0l-0,-0.002l-0.002,0l-0,0.002Z" style="fill:url(#_Linear11);fill-rule:nonzero;"/><g opacity="0.4"><path d="M180.08,142.44c5.248,13.778 14.904,32.32 24.73,55.504c11.944,27.786 24.256,61.896 33.62,95.894c9.5,33.91 16.26,67.44 20.282,92.47c1.504,9.316 2.658,17.462 3.522,24.004c0.208,-5.954 0.36,-13.12 0.328,-21.128c-0.06,-26.51 -2.382,-62.378 -9.498,-98.758c-6.924,-36.38 -18.938,-73.094 -33.956,-100.856c-12.566,-23.596 -27.314,-40.228 -39.028,-47.13Z" style="fill:url(#_Linear12);fill-rule:nonzero;"/></g><path d="M328.846,297.066c0.466,3.284 0.848,6.918 1.524,10.668c0.318,1.882 0.674,3.81 1.068,5.784c0.356,1.986 0.6,4.068 0.936,6.166c2.864,16.682 5.336,36.658 5.456,56.48c0.244,19.782 -1.768,39.256 -4.384,53.78c-2.608,14.526 -5.608,24.034 -5.582,24.028c-0.016,0 5.496,-9.144 11.376,-23.918c5.872,-14.728 11.84,-35.144 14.022,-56.376c0.148,-1.322 0.33,-2.668 0.418,-3.99c0.084,-1.326 0.162,-2.654 0.238,-3.978c0.13,-2.656 0.252,-5.32 0.354,-7.974c0.142,-2.672 0.002,-5.272 -0.062,-7.894c-0.102,-2.61 -0.22,-5.202 -0.346,-7.776c-0.09,-2.588 -0.472,-5.078 -0.782,-7.558c-0.346,-2.472 -0.706,-4.914 -1.064,-7.316c-0.196,-1.2 -0.376,-2.388 -0.606,-3.556c-0.276,-1.15 -0.548,-2.29 -0.824,-3.422c-0.554,-2.262 -1.144,-4.46 -1.742,-6.598c-0.626,-2.128 -1.184,-4.228 -1.918,-6.192c-0.764,-1.954 -1.544,-3.834 -2.336,-5.636c-1.616,-3.586 -3.144,-6.91 -4.962,-9.722c-3.734,-5.584 -7.488,-9.62 -11.118,-11.662c-0.912,4.472 -0.698,10.144 0.334,16.662Z" style="fill:url(#_Linear13);fill-rule:nonzero;"/><path d="M163.126,141.968c0.516,3.652 0.944,7.696 1.694,11.866c0.354,2.094 0.75,4.236 1.188,6.432c0.396,2.21 0.668,4.524 1.042,6.858c3.184,18.556 5.934,40.772 6.068,62.816c0.272,22 -1.968,43.658 -4.878,59.812c-2.9,16.158 -6.234,26.732 -6.206,26.724c-0.018,-0.002 6.114,-10.172 12.65,-26.6c6.53,-16.382 13.168,-39.088 15.596,-62.702c0.164,-1.472 0.366,-2.964 0.466,-4.436c0.092,-1.476 0.18,-2.95 0.264,-4.424c0.144,-2.952 0.278,-5.918 0.392,-8.87c0.158,-2.97 0.002,-5.862 -0.066,-8.78c-0.116,-2.9 -0.246,-5.784 -0.388,-8.648c-0.098,-2.878 -0.524,-5.648 -0.868,-8.404c-0.386,-2.752 -0.784,-5.466 -1.184,-8.136c-0.218,-1.336 -0.416,-2.658 -0.674,-3.958c-0.306,-1.278 -0.608,-2.546 -0.912,-3.806c-0.618,-2.514 -1.278,-4.958 -1.942,-7.338c-0.694,-2.364 -1.316,-4.7 -2.132,-6.886c-0.848,-2.172 -1.718,-4.264 -2.6,-6.268c-1.794,-3.988 -3.496,-7.684 -5.516,-10.81c-4.154,-6.212 -8.328,-10.702 -12.366,-12.972c-1.016,4.974 -0.776,11.282 0.372,18.53Z" style="fill:url(#_Linear14);fill-rule:nonzero;"/><path d="M353.31,335.398c1.154,5.256 2.756,10.794 4.424,16.722c1.708,5.902 3.51,12.176 5.652,18.556c8.24,25.732 18.912,54.838 29.16,82.108c10.28,27.278 20.216,52.762 27.708,71.39c7.452,18.644 12.662,30.308 12.69,30.296c-0.026,-0.006 -2.652,-13.294 -6.954,-33.896c-4.334,-20.582 -10.61,-48.404 -18.592,-77.164c-7.932,-28.772 -17.614,-58.512 -27.77,-82.976c-2.622,-6.044 -5.086,-11.908 -7.664,-17.238c-2.538,-5.364 -5.22,-10.22 -7.688,-14.636c-4.972,-8.834 -9.926,-15.474 -14.468,-19.216c-0.212,6.666 1.162,15.56 3.502,26.054Z" style="fill:url(#_Linear15);fill-rule:nonzero;"/></g><defs><linearGradient id="_Linear1" x1="0" y1="0" x2="1" y2="0" gradientUnits="userSpaceOnUse" gradientTransform="matrix(-34.7032,-244.566,244.566,-34.7032,160.741,386.351)"><stop offset="0" style="stop-color:#00add1;stop-opacity:1"/><stop offset="1" style="stop-color:#00627e;stop-opacity:1"/></linearGradient><linearGradient id="_Linear2" x1="0" y1="0" x2="1" y2="0" gradientUnits="userSpaceOnUse" gradientTransform="matrix(-68.6544,-185.624,-185.624,68.6544,118.552,307.723)"><stop offset="0" style="stop-color:#00add1;stop-opacity:1"/><stop offset="1" style="stop-color:#00627e;stop-opacity:1"/></linearGradient><linearGradient id="_Linear3" x1="0" y1="0" x2="1" y2="0" gradientUnits="userSpaceOnUse" gradientTransform="matrix(-68.2471,-184.523,-184.523,68.2471,116.91,308.382)"><stop offset="0" style="stop-color:#fff;stop-opacity:1"/><stop offset="1" style="stop-color:#000;stop-opacity:1"/></linearGradient><linearGradient id="_Linear4" x1="0" y1="0" x2="1" y2="0" gradientUnits="userSpaceOnUse" gradientTransform="matrix(-105.82,-37.1028,-37.1028,105.82,237.061,257.286)"><stop offset="0" style="stop-color:#00add1;stop-opacity:1"/><stop offset="1" style="stop-color:#00627e;stop-opacity:1"/></linearGradient><linearGradient id="_Linear5" x1="0" y1="0" x2="1" y2="0" gradientUnits="userSpaceOnUse" gradientTransform="matrix(-26.416,11.4142,11.4142,26.416,215.393,216.627)"><stop offset="0" style="stop-color:#fff;stop-opacity:1"/><stop offset="1" style="stop-color:#000;stop-opacity:1"/></linearGradient><linearGradient id="_Linear6" x1="0" y1="0" x2="1" y2="0" gradientUnits="userSpaceOnUse" gradientTransform="matrix(-122.239,-158.879,-158.879,122.239,173.876,269.848)"><stop offset="0" style="stop-color:#00add1;stop-opacity:1"/><stop offset="1" style="stop-color:#00627e;stop-opacity:1"/></linearGradient><linearGradient id="_Linear7" x1="0" y1="0" x2="1" y2="0" gradientUnits="userSpaceOnUse" gradientTransform="matrix(-109.594,-142.444,-142.444,109.594,164.786,257.06)"><stop offset="0" style="stop-color:#fff;stop-opacity:1"/><stop offset="1" style="stop-color:#000;stop-opacity:1"/></linearGradient><linearGradient id="_Linear8" x1="0" y1="0" x2="1" y2="0" gradientUnits="userSpaceOnUse" gradientTransform="matrix(-64.0791,-206.906,206.906,-64.0791,315.395,431.168)"><stop offset="0" style="stop-color:#00add1;stop-opacity:1"/><stop offset="1" style="stop-color:#00627e;stop-opacity:1"/></linearGradient><linearGradient id="_Linear9" x1="0" y1="0" x2="1" y2="0" gradientUnits="userSpaceOnUse" gradientTransform="matrix(-76.4986,-272.424,-272.424,76.4986,351.917,510.884)"><stop offset="0" style="stop-color:#00add1;stop-opacity:1"/><stop offset="1" style="stop-color:#00627e;stop-opacity:1"/></linearGradient><linearGradient id="_Linear10" x1="0" y1="0" x2="1" y2="0" gradientUnits="userSpaceOnUse" gradientTransform="matrix(8.11564,-143.348,-143.348,-8.11564,296.253,460.333)"><stop offset="0" style="stop-color:#fff;stop-opacity:1"/><stop offset="1" style="stop-color:#000;stop-opacity:1"/></linearGradient><linearGradient id="_Linear11" x1="0" y1="0" x2="1" y2="0" gradientUnits="userSpaceOnUse" gradientTransform="matrix(-113.45,-275.946,-275.946,113.45,309.633,465.348)"><stop offset="0" style="stop-color:#00add1;stop-opacity:1"/><stop offset="1" style="stop-color:#00627e;stop-opacity:1"/></linearGradient><linearGradient id="_Linear12" x1="0" y1="0" x2="1" y2="0" gradientUnits="userSpaceOnUse" gradientTransform="matrix(-104.013,-252.991,-252.991,104.013,301.338,445.689)"><stop offset="0" style="stop-color:#fff;stop-opacity:1"/><stop offset="1" style="stop-color:#000;stop-opacity:1"/></linearGradient><linearGradient id="_Linear13" x1="0" y1="0" x2="1" y2="0" gradientUnits="userSpaceOnUse" gradientTransform="matrix(-34.146,-156.671,-156.671,34.146,352.092,445.953)"><stop offset="0" style="stop-color:#00add1;stop-opacity:1"/><stop offset="1" style="stop-color:#00627e;stop-opacity:1"/></linearGradient><linearGradient id="_Linear14" x1="0" y1="0" x2="1" y2="0" gradientUnits="userSpaceOnUse" gradientTransform="matrix(-37.9763,-174.245,-174.245,37.9763,188.98,307.558)"><stop offset="0" style="stop-color:#00add1;stop-opacity:1"/><stop offset="1" style="stop-color:#00627e;stop-opacity:1"/></linearGradient><linearGradient id="_Linear15" x1="0" y1="0" x2="1" y2="0" gradientUnits="userSpaceOnUse" gradientTransform="matrix(-140.268,-83.4881,-83.4881,140.268,464.273,475.297)"><stop offset="0" style="stop-color:#00add1;stop-opacity:1"/><stop offset="1" style="stop-color:#00627e;stop-opacity:1"/></linearGradient></defs></svg>