<?xml version="1.0" encoding="UTF-8" standalone="no"?><!DOCTYPE svg PUBLIC "-//W3C//DTD SVG 1.1//EN" "http://www.w3.org/Graphics/SVG/1.1/DTD/svg11.dtd"><svg width="100%" height="100%" viewBox="0 0 389 236" version="1.1" xmlns="http://www.w3.org/2000/svg" xmlns:xlink="http://www.w3.org/1999/xlink" xml:space="preserve" xmlns:serif="http://www.serif.com/" style="fill-rule:evenodd;clip-rule:evenodd;stroke-linejoin:round;stroke-miterlimit:2;"><g id="hoja-izq-up"><path d="M162.975,36.946c-1.16,1.902 -2.108,3.932 -2.788,6.1c-0.804,2.572 -1.956,5.916 -4.656,5.874c-1.834,-0.044 -3.218,-1.93 -3.336,-3.782c-0.116,-1.836 0.678,-3.604 1.478,-5.262c0.466,-0.976 0.944,-1.954 1.434,-2.93l-60.14,-0c1.536,5.052 3.3,9.98 5.056,14.648c0.252,0.68 0.514,1.34 0.76,2.002c-16.332,2.534 -32.43,8.766 -44.676,19.886c-12.244,11.118 -20.22,27.502 -19.028,44c0.544,7.458 2.896,14.726 6.204,21.442c2.964,6.054 7.836,12.294 14.284,13.112c0.518,12.218 5.936,24.37 12.878,34.168c3.948,5.576 9.46,9.982 15.706,12.712c6.622,2.898 14.266,1.484 20.588,4.374c2.646,1.214 5.4,2.16 8.214,2.826c-5.922,-7.072 -8.954,-15.742 -8.334,-25.002c0.334,-5.144 1.78,-10.148 2.856,-15.194c1.718,-7.996 1.344,-16.24 1.728,-24.37c0.38,-8.43 1.134,-16.878 2.846,-25.158c0.392,-1.898 0.854,-3.856 2.068,-5.384c1.206,-1.51 3.344,-2.47 5.132,-1.726c1.482,0.612 2.356,2.214 2.536,3.802c0.198,1.584 -0.176,3.166 -0.568,4.716c-5.124,20.616 -12.53,41.238 -11.404,62.79c0.914,17.48 9.032,33.028 25.814,39.828c7.376,2.982 14.79,5.986 22.562,7.682c7.772,1.694 15.988,2.034 23.608,-0.288c-0.692,-0.426 -1.346,-0.904 -1.988,-1.402c-4.3,-9.648 -7.948,-19.608 -10.786,-29.794c-4.65,-16.718 -7.168,-34.108 -6.738,-51.474c-0.004,-0.11 0.006,-0.22 0.004,-0.314c0.098,-3.514 1.58,-40.842 11.192,-35.894c2.418,1.258 2.942,4.468 3.046,7.188c0.568,14.632 -2,29.174 -3.622,43.718c-1.842,16.6 -2.106,34.862 4.972,50.506c3.616,7.982 9.216,14.922 16.428,19.916c8.026,5.584 18.342,5.87 27.776,5.372c2.382,-0.136 4.772,-0.322 7.162,-0.522c7.864,-0.636 16.112,-2.286 21.976,-7.578c-5.45,-1.128 -8.888,-7.536 -11.242,-12.57c-7.418,-15.848 -14.858,-31.916 -18.068,-49.116c-1.74,-9.348 -2.218,-18.926 -4.626,-28.136c-1.678,-6.414 -4.282,-12.566 -5.916,-19.006c-0.716,-2.798 -0.906,-6.414 1.584,-7.86c2.038,-1.176 4.794,0.05 6.088,2.034c1.302,1.966 1.52,4.444 1.696,6.79c1.182,15.4 2.504,30.9 6.942,45.69c3.11,10.372 7.712,20.22 12.668,29.844c3.9,7.552 8.31,15.31 15.502,19.85c7.564,4.786 17.064,5.254 26,4.532c5.738,-0.466 11.526,-1.368 16.798,-3.702c5.288,-2.322 10.046,-6.182 12.558,-11.38c-11.9,-6.01 -21.528,-15.882 -28.828,-27.046c-4.368,-6.664 -7.956,-13.8 -11.072,-21.118c-3.06,-7.168 -6.186,-14.626 -8.198,-22.176c-0.664,-2.508 -1.996,-6.436 -0.996,-8.98c0.704,-1.828 2.304,-1.176 3.04,0.184c1.966,3.686 2.594,7.806 3.592,11.81c3.242,12.82 10.894,24.016 18.428,34.9c4.794,6.932 9.728,14.026 16.596,18.958c10.038,7.2 23.818,8.866 35.282,4.234c3.652,-1.47 6.414,-1 10.28,-0.258c-0.172,-0.252 -0.368,-0.468 -0.556,-0.716c0.198,0.056 0.33,0.08 0.374,0.072c-0.094,-0.092 -0.506,-0.444 -1.142,-1.004c-1.964,-2.126 -4.444,-3.72 -7.056,-5.178c-1.744,-1.366 -10.896,-9.044 -16.772,-25.082c-0,0 -0.08,-0.268 -0.24,-0.71c-0.262,-1.006 -0.6,-1.984 -1.036,-2.912c-2.404,-5.134 -7.438,-8.384 -11.394,-12.448c-1.062,-1.08 -2.09,-2.308 -2.394,-3.796c-0.288,-1.49 0.392,-3.282 1.852,-3.738c1.132,-0.35 2.332,0.186 3.354,0.786c4.922,2.974 8.194,8.042 10.684,13.224c2.476,5.182 4.362,10.676 7.41,15.552c0.446,0.72 0.89,1.332 1.358,1.908l0.268,0.69c6.85,7.248 14.674,8.54 21.894,7.22c12.902,-2.36 23.868,-13.072 23.868,-13.072c-0.018,-0.012 -0.022,-0.026 -0.022,-0.042c1.512,-1.284 3.614,-3.132 5.184,-4.79l0.03,-0.006c0.646,-0.684 1.206,-1.322 1.576,-1.878c-0,0 -13.42,2.014 -16.436,-16.106l-0.046,0.01c0.704,-4.586 0.08,-9.808 -3.482,-13.012c-1.94,-1.74 -4.362,-2.854 -6.8,-3.78c-13.042,-4.95 -22.236,-4.526 -35.882,-4.078c-3.318,0.104 -9.74,-0.232 -9.834,-4.876c-0.026,-1.428 0.83,-2.78 1.98,-3.636c1.15,-0.856 2.566,-1.288 3.956,-1.606c8.772,-1.966 16.548,1.304 24.818,3.664c12.59,3.584 25.136,4.186 38.174,2.902c-4.79,-1.83 -6.802,-7.318 -9.144,-11.864c-9.514,-18.442 -31.564,-27.192 -52.284,-28.236c-8.406,-0.43 -16.868,-0.298 -25.226,0.728c-8.67,1.066 -19.36,2.436 -27.64,-1.086c-4.062,-1.728 -4.958,-5.688 -0.814,-7.816c2.832,-1.462 6.202,-1.638 9.312,-2.02c5.45,-0.68 10.958,-0.68 16.41,-0.23c10.728,0.904 21.366,3.556 31.5,6.8c8.864,2.85 17.468,6.426 25.854,10.448c4.296,2.048 8.518,4.22 12.69,6.464c3.178,1.7 8.862,3.606 11.246,6.302c-4.306,-4.864 -3.308,-12.226 -3.14,-18.71c0.182,-6.662 -0.854,-13.446 -3.902,-19.358c-3.054,-5.928 -8.272,-10.876 -14.672,-12.728c-3.738,-1.08 -7.702,-1.062 -11.586,-1.296c-22.908,-1.306 -45.232,-10.776 -68.06,-8.552c-7.83,0.754 -15.452,2.888 -23.028,5.014c-8.914,2.482 -16.448,5.952 -23.592,11.824c-2.05,1.698 -4.672,3.468 -7.442,3.298c-0.602,-0.032 -1.228,-0.168 -1.704,-0.54c-1.076,-0.81 -0.886,-1.914 0.082,-3.162l0.016,-0.004c3.492,-4.4 16.884,-10.454 18.748,-11.284c4.718,-2.102 9.54,-3.96 14.43,-5.62l-90.094,0Zm-106.376,93.354c0.614,-5.244 1.568,-10.44 2.868,-15.558c2.054,-8.138 7.546,-22.176 18.308,-20.918c2.188,0.262 4.35,1.66 5.02,3.774c0.74,2.32 -0.402,4.78 -1.674,6.854c-4.516,7.328 -10.93,13.146 -15.512,20.454c-4.312,6.896 -7.564,14.592 -8.034,22.784c-0.006,0.144 0.004,0.282 -0.004,0.41c-1.828,-5.6 -1.65,-11.868 -0.972,-17.8Z" style="fill:url(#_Linear1);fill-rule:nonzero;"/><g opacity="0.4"><path d="M43.283,136.928c2.964,6.054 7.836,12.294 14.284,13.114c0.518,12.216 5.938,24.37 12.876,34.168c3.948,5.574 9.462,9.98 15.708,12.712c6.622,2.896 14.266,1.482 20.588,4.372c2.646,1.216 5.4,2.16 8.214,2.826c-5.922,-7.07 -8.956,-15.74 -8.336,-25c0.334,-5.146 1.782,-10.15 2.858,-15.194c1.716,-7.998 1.342,-16.24 1.728,-24.372c0.38,-8.428 1.132,-16.878 2.846,-25.158c0.392,-1.898 0.852,-3.854 2.068,-5.384c1.204,-1.51 3.342,-2.468 5.132,-1.726c1.48,0.612 2.356,2.214 2.538,3.802c0.194,1.586 -0.178,3.166 -0.57,4.718c-5.124,20.614 -12.53,41.238 -11.406,62.788c0.914,17.48 9.032,33.03 25.814,39.83c7.378,2.98 14.79,5.984 22.562,7.68c7.774,1.696 15.99,2.034 23.61,-0.288c-0.692,-0.424 -1.346,-0.904 -1.988,-1.4c-4.3,-9.65 -7.948,-19.61 -10.786,-29.796c-4.648,-16.718 -7.168,-34.108 -6.74,-51.472c-0.004,-0.11 0.008,-0.222 0.006,-0.316c0.096,-3.512 1.582,-40.842 11.192,-35.894c2.418,1.258 2.942,4.468 3.046,7.188c0.568,14.632 -2,29.176 -3.622,43.718c-1.844,16.6 -2.108,34.862 4.972,50.506c3.616,7.982 9.216,14.922 16.426,19.916c8.028,5.586 18.344,5.87 27.776,5.374c2.384,-0.138 4.774,-0.324 7.162,-0.524c7.866,-0.636 16.112,-2.286 21.976,-7.576c-5.448,-1.13 -8.888,-7.538 -11.24,-12.57c-7.418,-15.85 -14.858,-31.916 -18.068,-49.118c-1.742,-9.346 -2.218,-18.926 -4.626,-28.136c-1.678,-6.414 -4.282,-12.566 -5.916,-19.004c-0.718,-2.798 -0.906,-6.414 1.584,-7.862c2.036,-1.176 4.794,0.052 6.086,2.036c1.304,1.964 1.522,4.444 1.698,6.788c1.18,15.4 2.504,30.902 6.942,45.69c3.108,10.372 7.712,20.22 12.668,29.846c3.9,7.55 8.31,15.308 15.5,19.848c7.566,4.788 17.066,5.254 26.002,4.534c5.74,-0.468 11.524,-1.37 16.796,-3.704c5.29,-2.32 10.048,-6.182 12.56,-11.38c-11.898,-6.01 -21.528,-15.882 -28.828,-27.046c-4.368,-6.662 -7.956,-13.8 -11.074,-21.116c-3.058,-7.17 -6.186,-14.626 -8.196,-22.178c-0.664,-2.508 -1.996,-6.436 -0.996,-8.98c0.704,-1.828 2.302,-1.176 3.04,0.184c1.964,3.686 2.592,7.806 3.592,11.812c3.242,12.82 10.894,24.014 18.426,34.9c4.794,6.93 9.73,14.026 16.598,18.956c10.038,7.2 23.818,8.866 35.282,4.236c3.65,-1.472 6.412,-1 10.28,-0.26c-0.172,-0.252 -0.37,-0.468 -0.556,-0.716c0.198,0.058 0.328,0.08 0.374,0.072c-0.096,-0.092 -0.506,-0.442 -1.144,-1.002c-1.962,-2.128 -4.442,-3.722 -7.054,-5.18c-1.746,-1.366 -10.896,-9.042 -16.772,-25.08c-0,0 -0.082,-0.268 -0.24,-0.712c-0.264,-1.006 -0.6,-1.984 -1.038,-2.912c-2.402,-5.132 -7.436,-8.384 -11.392,-12.446c-1.062,-1.08 -2.09,-2.31 -2.394,-3.796c-0.288,-1.49 0.392,-3.284 1.852,-3.74c1.132,-0.348 2.332,0.188 3.354,0.788c4.92,2.972 8.194,8.042 10.684,13.222c2.474,5.182 4.362,10.678 7.41,15.552c0.446,0.72 0.888,1.332 1.356,1.908l0.268,0.692c6.852,7.246 14.676,8.54 21.896,7.218c12.902,-2.36 23.868,-13.07 23.868,-13.07c-0.018,-0.014 -0.02,-0.028 -0.024,-0.044c1.512,-1.284 3.614,-3.132 5.186,-4.79c-3.574,3.77 -11.222,3.052 -15.514,1.796c-5.788,-1.694 -11.12,-4.878 -16.074,-8.244c-3.822,-2.598 -7.486,-5.428 -11.048,-8.37c-3.344,-2.762 -6.268,-5.974 -9.804,-8.5c-6.172,-4.412 -13.236,-7.232 -20.014,-10.55c-6.286,-3.08 -12.598,-6.104 -18.934,-9.08c-16.002,-7.52 -32.144,-14.748 -48.466,-21.55c-17.012,-7.088 -34.228,-13.784 -51.804,-19.35c-3.272,-1.036 -6.556,-2.03 -9.858,-2.966c-0,0 -57.656,-20.702 -85.422,-22.566c0.25,0.678 0.514,1.338 0.76,2.002c-16.334,2.532 -32.432,8.766 -44.676,19.884c-12.244,11.118 -20.22,27.502 -19.028,44.002c0.544,7.456 2.898,14.724 6.204,21.44Z" style="fill:url(#_Linear2);fill-rule:nonzero;"/></g><path d="M388.328,159.44c0,0 -9.948,10.414 -39.616,-12.46c0,0 -20.838,-17.524 -43.4,-27.472c0,0 -96.118,-53.242 -205.952,-70.49c0,0 -43.502,-14.268 -96.53,-49.018c0,0 -4.998,6.692 -1.71,10.092c0,0 48.92,34.168 97.386,43.972c0,0 89.14,13.476 186.568,60.106c0,0 41.946,20.332 54.04,30.566c0,0 30.498,29.832 49.214,14.704" style="fill:#005469;fill-rule:nonzero;"/></g><defs><linearGradient id="_Linear1" x1="0" y1="0" x2="1" y2="0" gradientUnits="userSpaceOnUse" gradientTransform="matrix(-32.4173,114.387,114.387,32.4173,270.76,-71.3152)"><stop offset="0" style="stop-color:#00add1;stop-opacity:1"/><stop offset="1" style="stop-color:#00627e;stop-opacity:1"/></linearGradient><linearGradient id="_Linear2" x1="0" y1="0" x2="1" y2="0" gradientUnits="userSpaceOnUse" gradientTransform="matrix(36.2361,-151.829,-151.829,-36.2361,186.961,237.548)"><stop offset="0" style="stop-color:#fff;stop-opacity:1"/><stop offset="1" style="stop-color:#000;stop-opacity:1"/></linearGradient></defs></svg>