<?xml version="1.0" encoding="UTF-8" standalone="no"?><!DOCTYPE svg PUBLIC "-//W3C//DTD SVG 1.1//EN" "http://www.w3.org/Graphics/SVG/1.1/DTD/svg11.dtd"><svg width="100%" height="100%" viewBox="0 0 744 271" version="1.1" xmlns="http://www.w3.org/2000/svg" xmlns:xlink="http://www.w3.org/1999/xlink" xml:space="preserve" xmlns:serif="http://www.serif.com/" style="fill-rule:evenodd;clip-rule:evenodd;stroke-linejoin:round;stroke-miterlimit:2;"><g id="hoja-palm-izq-abajo"><path d="M535.7,83.582l-0,0.002l-0,-0.002Zm-0.004,0.002l0.004,0l-0.004,0Zm-53.45,9.76c-32.158,6.916 -75.194,18.346 -118.174,34.558c-42.97,16.078 -85.81,37.01 -117.598,59.33c-15.898,11.116 -29.044,22.52 -38.132,33.292c-4.376,5.126 -7.76,10.134 -10.158,14.772l15.43,0c2.648,-1.838 5.456,-3.768 8.442,-5.77c11.752,-7.946 26.068,-17.108 42.37,-26.714c32.522,-19.274 72.962,-40.17 113.046,-58.266c79.724,-36.428 157.614,-60.762 158.224,-60.962c-0.314,0.074 -21.518,2.864 -53.45,9.76Z" style="fill:url(#_Linear1);fill-rule:nonzero;"/><path d="M262.832,0.002l0.002,-0.002c-0,0 -0.002,0 -0.002,0.002Zm-13.582,7.528c-0.064,0.03 -0.114,0.068 -0.178,0.098c-8.19,4.674 -19.596,11.4 -33.074,19.912c-27.82,17.558 -64.306,43.086 -99.086,73.088c-31.67,27.174 -61.87,58.074 -83.76,87.44l-0,37.2c4.91,-6.362 10.236,-13.074 15.952,-20.034c23.908,-29.278 54.69,-62.804 86.118,-93.584c62.388,-61.676 127.21,-111.342 127.61,-111.648c-0.116,0.072 -5.086,2.674 -13.582,7.528Z" style="fill:url(#_Linear2);fill-rule:nonzero;"/><g opacity="0.4"><path d="M0,270.95c5.002,-6.684 10.82,-15.512 18.494,-26.066c8.31,-11.502 18.602,-25.024 30.61,-39.65c23.91,-29.28 54.69,-62.804 86.118,-93.584c62.604,-61.89 127.662,-111.69 127.612,-111.65c0.004,0.01 -4.984,2.618 -13.582,7.53c-0.066,0.03 -0.116,0.068 -0.18,0.098c-7.6,4.558 -17.026,10.386 -27.72,17.348c-28.382,18.426 -65.552,45.17 -100.916,76.48c-35.412,31.19 -68.918,66.992 -91.286,100.072c-11.214,16.498 -19.668,32.272 -24.464,45.96c-3.182,8.916 -4.65,16.938 -4.686,23.462Z" style="fill:url(#_Linear3);fill-rule:nonzero;"/></g><path d="M565.722,167.99c-45.396,6.642 -91.69,18.056 -127.474,33.162c-17.888,7.508 -33.144,15.88 -44.302,24.488c-4.198,3.202 -7.784,6.46 -10.74,9.656l27.382,0c12.096,-4.75 26.232,-9.932 41.92,-15.126c35.854,-11.972 79.796,-23.858 122.796,-33.082c85.992,-18.856 167.598,-26.178 167.532,-26.178c0.002,0.03 -21.39,-1.746 -54.308,-1.746c-0.236,-0.002 -0.474,-0.002 -0.712,-0.002c-32.824,0 -76.988,2.104 -122.094,8.828Z" style="fill:url(#_Linear4);fill-rule:nonzero;"/><path d="M248.374,48.488c-28.82,15.12 -66.786,37.454 -103.402,64.396c-36.624,26.822 -71.808,58.302 -96.094,88.284c-5.918,7.27 -11.198,14.44 -15.726,21.37l0,12.758l15.268,0c6.472,-7.346 13.674,-15.242 21.53,-23.488c25.786,-27.196 58.69,-58.062 92.076,-86.122c48.264,-40.978 97.438,-75.492 120.756,-91.314c8.83,-6 13.972,-9.32 13.968,-9.332c0.01,0.034 -19.552,8.29 -48.376,23.448Z" style="fill:url(#_Linear5);fill-rule:nonzero;"/><g opacity="0.4"><path d="M23.194,265.376c3.928,-4.822 8.39,-10.392 13.606,-16.574c9.05,-10.782 20.214,-23.414 33.15,-36.994c25.786,-27.198 58.69,-58.062 92.076,-86.122c48.264,-40.978 97.438,-75.492 120.756,-91.312c-7.316,3.526 -16.142,7.93 -26.078,13.156c-28.82,15.12 -66.778,37.45 -103.392,64.392c-36.624,26.822 -71.808,58.302 -96.092,88.286c-12.164,14.936 -21.628,29.456 -27.41,42.322c-3.904,8.56 -6.038,16.39 -6.616,22.846Z" style="fill:url(#_Linear6);fill-rule:nonzero;"/></g><path d="M223.234,92.724c-22.234,11.908 -51.528,29.38 -79.748,50.296c-28.248,20.814 -55.356,45.126 -74.256,68.22c-4.768,5.74 -8.84,11.53 -12.61,16.918c-0.924,1.356 -1.86,2.666 -2.688,4.022c-0.612,1.048 -1.218,2.088 -1.81,3.116l25.406,0c3.968,-3.932 7.956,-8.13 12.284,-12.412c20.554,-20.632 45.534,-44.628 70.61,-66.882c25,-22.292 49.966,-42.858 68.792,-57.698c5.768,-4.522 10.95,-8.524 15.344,-11.902c9.572,-7.356 15.492,-11.774 16,-12.172c-0.908,0.412 -15.796,6.942 -37.324,18.494Z" style="fill:url(#_Linear7);fill-rule:nonzero;"/><g opacity="0.4"><path d="M49.918,261.782c0.282,-0.25 0.578,-0.504 0.872,-0.758c1.754,-1.528 3.556,-3.192 5.374,-4.97c1.86,-1.766 3.972,-3.578 6.004,-5.55c2.054,-1.942 4.154,-4.02 6.292,-6.18c1.048,-1.086 2.128,-2.194 3.212,-3.328c1.114,-1.118 2.314,-2.234 3.48,-3.378c4.764,-4.582 9.468,-9.596 14.66,-14.734c20.556,-20.634 45.532,-44.628 70.608,-66.88c25.004,-22.296 49.968,-42.86 68.794,-57.702c5.768,-4.52 10.95,-8.522 15.344,-11.902c-3.892,1.996 -8.17,4.22 -12.74,6.672c-22.232,11.908 -51.516,29.378 -79.736,50.294c-28.258,20.816 -55.366,45.128 -74.256,68.22c-4.78,5.744 -8.84,11.528 -12.612,16.904c-0.922,1.368 -1.858,2.68 -2.69,4.022c-0.798,1.372 -1.568,2.71 -2.332,4.034c-1.48,2.634 -2.86,5.192 -4.098,7.648c-1.224,2.466 -2.414,4.788 -3.264,7.1c-0.82,2.34 -1.518,4.548 -2.054,6.636c-0.354,1.344 -0.64,2.632 -0.858,3.852Z" style="fill:url(#_Linear8);fill-rule:nonzero;"/></g><path d="M359.392,56.75l0.002,0l-0.002,0Zm0,0.002l0,-0.002l0,0.002Zm-41.2,18.898c-24.588,12.192 -57.036,30.166 -88.584,51.956c-31.576,21.696 -62.184,47.226 -83.978,72.04c-10.898,12.38 -19.626,24.538 -25.292,35.568c-0.014,0.026 -0.028,0.054 -0.042,0.082l21.788,0c6.94,-6.82 14.69,-14.324 23.072,-22.264c23.238,-22.068 51.858,-47.468 80.444,-70.874c56.824,-46.896 113.502,-85.196 113.792,-85.406c-0.154,0.092 -16.738,6.74 -41.2,18.898Z" style="fill:url(#_Linear9);fill-rule:nonzero;"/><path d="M374.66,118.018c-26.582,4.968 -62.042,14.024 -96.984,28.192c-34.972,13.968 -69.168,33.316 -93.772,54.208c-14.05,11.754 -24.772,23.98 -31.67,34.878l23.162,0c7.632,-5.682 16.116,-11.97 25.506,-18.452c25.266,-17.66 56.824,-36.89 88.932,-53.032c32.002,-16.256 64.24,-29.58 88.54,-38.47c22.394,-8.208 37.978,-12.822 40.278,-13.53c0.194,-0.054 0.296,-0.082 0.296,-0.082c-0.158,0.044 -17.808,1.3 -44.288,6.288Z" style="fill:url(#_Linear10);fill-rule:nonzero;"/><g opacity="0.4"><path d="M168.776,240.222c9.256,-6.864 19.926,-14.956 32.126,-23.378c25.266,-17.66 56.824,-36.89 88.932,-53.032c32.002,-16.256 64.24,-29.58 88.54,-38.47c22.394,-8.208 37.978,-12.822 40.28,-13.53c-6.558,0.926 -14.438,2.184 -23.298,3.852c-26.586,4.958 -62.056,14.03 -96.988,28.182c-34.984,13.972 -69.17,33.316 -93.786,54.21c-17.274,14.456 -29.518,29.634 -35.806,42.166Z" style="fill:url(#_Linear11);fill-rule:nonzero;"/></g><path d="M293.118,105.574c-26.328,7.738 -61.3,20.45 -95.398,38.064c-34.148,17.42 -67.16,39.998 -90.398,62.968c-10.03,9.782 -18.126,19.604 -24.124,28.69l24.958,0c5.47,-4.742 11.358,-9.766 17.694,-14.936c24.156,-19.922 54.49,-42.042 85.566,-61.198c30.952,-19.268 62.318,-35.7 86.03,-46.948c8.824,-4.196 16.584,-7.702 22.836,-10.454c10.482,-4.614 16.756,-7.106 16.836,-7.15c-0.136,0.058 -17.766,3.216 -44,10.964Z" style="fill:url(#_Linear12);fill-rule:nonzero;"/><g opacity="0.4"><path d="M77.85,261.02c12.174,-9.208 27.804,-24.178 48,-40.66c24.156,-19.922 54.49,-42.042 85.568,-61.198c30.95,-19.268 62.316,-35.7 86.028,-46.948c8.824,-4.196 16.584,-7.702 22.836,-10.456c-5.976,1.518 -13.144,3.444 -21.094,5.796c-26.33,7.74 -61.304,20.44 -95.402,38.054c-34.15,17.42 -67.16,39.996 -90.4,62.968c-19.812,19.326 -32.07,38.8 -35.536,52.444Z" style="fill:url(#_Linear13);fill-rule:nonzero;"/></g><path d="M478.544,218.072c-16.024,4.606 -30.07,10.514 -40.848,17.224l79.42,0c24.102,-3.658 50.26,-6.562 75.926,-8.222c73.424,-5.25 142.354,0.846 143.224,0.944c-0.43,-0.096 -17.696,-5.432 -44.508,-10.886c-27.126,-5.542 -64.124,-10.862 -102.632,-11.528c-3.276,-0.068 -6.566,-0.104 -9.856,-0.104c-35.382,0 -71.34,4.032 -100.726,12.572Zm257.73,9.946l-0.008,0c0.004,0 0.008,0.002 0.008,0Z" style="fill:url(#_Linear14);fill-rule:nonzero;"/><path d="M448.306,122.518c-22.42,3.544 -51.91,11.126 -79.636,23.966c-1.734,0.786 -3.522,1.544 -5.214,2.404c-1.696,0.866 -3.384,1.738 -5.07,2.614c-3.364,1.78 -6.732,3.58 -10.074,5.396c-3.39,1.778 -6.488,3.852 -9.672,5.848c-3.132,2.034 -6.238,4.072 -9.316,6.114c-3.118,2 -5.902,4.292 -8.728,6.486c-2.79,2.234 -5.532,4.462 -8.226,6.66c-1.334,1.118 -2.664,2.208 -3.934,3.346c-1.212,1.18 -2.418,2.348 -3.612,3.514c-2.376,2.338 -4.648,4.67 -6.842,6.97c-2.162,2.324 -4.34,4.548 -6.218,6.888c-1.848,2.368 -3.59,4.704 -5.23,6.998c-3.23,4.608 -6.204,8.92 -8.336,13.214c-2.114,4.43 -3.73,8.574 -4.784,12.36l15.402,0c1.128,-0.872 2.27,-1.788 3.42,-2.744c3.702,-2.972 7.894,-6.104 12.014,-9.676c2.086,-1.77 4.198,-3.616 6.34,-5.546c2.184,-1.89 4.566,-3.712 6.902,-5.66c18.44,-15.722 41.216,-33.372 65.52,-48.012c24.17,-14.766 49.606,-26.526 69.396,-33.926c19.786,-7.414 33.678,-10.676 33.652,-10.702c0.01,0.022 -15.276,-0.078 -37.754,3.488Z" style="fill:url(#_Linear15);fill-rule:nonzero;"/><path d="M534.066,235.296l165.098,0c-14.686,-2.314 -30.302,-4.208 -46.388,-5.374c-12.886,-0.992 -26.076,-1.498 -39.238,-1.498c-27.604,0 -55.098,2.226 -79.472,6.872Z" style="fill:url(#_Linear16);fill-rule:nonzero;"/><path d="M534.836,155.188c-21.838,0.234 -51.262,3.416 -80.362,11.81c-3.684,0.948 -7.248,2.156 -10.846,3.372c-3.594,1.228 -7.172,2.476 -10.758,3.736c-3.616,1.198 -7.004,2.808 -10.478,4.246c-3.436,1.498 -6.854,3.006 -10.236,4.516c-3.422,1.448 -6.56,3.304 -9.76,4.982c-3.158,1.74 -6.284,3.47 -9.352,5.184c-1.52,0.878 -3.056,1.712 -4.514,2.644c-1.428,0.95 -2.842,1.908 -4.248,2.852c-2.8,1.894 -5.512,3.788 -8.142,5.672c-2.606,1.926 -5.216,3.708 -7.548,5.704c-2.326,2.006 -4.53,3.978 -6.65,5.94c-2.112,1.944 -4.106,3.882 -5.978,5.774c-1.848,1.932 -3.698,3.682 -5.166,5.668c-2.184,2.776 -4.102,5.452 -5.73,8.008l23.15,0c2.304,-1.218 4.644,-2.53 7.036,-3.904c2.416,-1.386 4.858,-2.852 7.372,-4.374c2.498,-1.53 5.232,-2.87 7.896,-4.41c2.71,-1.516 5.432,-3.072 8.212,-4.682c1.372,-0.81 2.762,-1.628 4.178,-2.452c1.406,-0.82 2.912,-1.534 4.362,-2.32c2.928,-1.566 5.896,-3.156 8.912,-4.744c3.024,-1.568 5.948,-3.364 9.13,-4.804c3.126,-1.548 6.282,-3.08 9.446,-4.626c3.176,-1.502 6.268,-3.222 9.568,-4.588c3.266,-1.44 6.504,-2.898 9.778,-4.316c3.252,-1.446 6.468,-2.936 9.814,-4.18c26.242,-10.8 52.87,-18.596 73.118,-23.022c19.508,-4.276 32.976,-5.564 33.906,-5.68c-0.154,-0.03 -0.726,-0.114 -1.674,-0.238c-0,0 -0.014,0.004 -0.026,-0.006c-4.114,-0.536 -15.304,-1.782 -30.868,-1.782c-1.158,0 -2.338,0.006 -3.542,0.02Z" style="fill:url(#_Linear17);fill-rule:nonzero;"/><g opacity="0.4"><path d="M357.308,241.108c1.374,-0.714 2.774,-1.46 4.196,-2.262c2.044,-1.232 4.4,-2.27 6.68,-3.532c2.316,-1.224 4.666,-2.542 7.07,-3.922c2.416,-1.386 4.86,-2.852 7.372,-4.374c2.498,-1.53 5.232,-2.87 7.896,-4.41c2.71,-1.516 5.432,-3.072 8.212,-4.682c1.37,-0.81 2.764,-1.628 4.178,-2.452c1.404,-0.82 2.912,-1.536 4.362,-2.32c2.926,-1.566 5.896,-3.154 8.914,-4.744c3.024,-1.568 5.946,-3.364 9.128,-4.806c3.126,-1.548 6.282,-3.078 9.446,-4.624c3.176,-1.502 6.268,-3.222 9.568,-4.588c3.266,-1.44 6.504,-2.896 9.778,-4.314c3.252,-1.45 6.468,-2.938 9.814,-4.18c26.24,-10.8 52.87,-18.6 73.118,-23.022c19.508,-4.278 32.976,-5.568 33.906,-5.682c-0.154,-0.03 -0.726,-0.114 -1.674,-0.238c-0,0 -0.012,0.004 -0.026,-0.004c-5.444,-0.316 -12.062,-0.52 -19.572,-0.426c-21.834,0.246 -51.274,3.42 -80.356,11.82c-3.686,0.95 -7.262,2.16 -10.848,3.372c-3.594,1.228 -7.172,2.476 -10.758,3.738c-3.614,1.196 -7.008,2.794 -10.482,4.234c-3.43,1.51 -6.85,3.018 -10.23,4.528c-3.424,1.448 -6.562,3.304 -9.766,4.97c-3.154,1.752 -6.278,3.48 -9.358,5.198c-1.512,0.876 -3.046,1.708 -4.504,2.642c-1.428,0.95 -2.842,1.908 -4.252,2.838c-2.794,1.906 -5.51,3.79 -8.148,5.69c-2.598,1.91 -5.208,3.692 -7.536,5.698c-2.328,2.006 -4.542,3.982 -6.652,5.94c-2.112,1.946 -4.108,3.872 -5.978,5.774c-1.848,1.934 -3.698,3.684 -5.166,5.668c-3.486,4.442 -6.302,8.622 -8.332,12.472Z" style="fill:url(#_Linear18);fill-rule:nonzero;"/></g><path d="M599.274,193.396c-37.11,3.006 -74.982,11.374 -104.362,24.504c-11.846,5.242 -22.312,11.19 -30.866,17.396l55.94,0c26,-7.96 55.82,-15.25 85.358,-20.384c35.14,-6.248 69.714,-9.554 95.496,-10.894c15.802,-0.836 28.29,-1.06 35.582,-1.104c2.716,-0.016 4.712,-0.01 5.892,-0.006c0.81,0.004 1.238,0.006 1.254,0.002c-0.024,0.006 -17.322,-4.142 -44.114,-7.396c-17.302,-2.128 -38.574,-3.71 -61.476,-3.71c-12.54,0 -25.564,0.474 -38.704,1.592Z" style="fill:url(#_Linear19);fill-rule:nonzero;"/><g opacity="0.4"><path d="M451.59,259.188c0.102,-0.028 0.212,-0.072 0.324,-0.104c2.302,-0.706 4.686,-1.558 7.166,-2.498c2.474,-0.962 5.196,-1.822 7.91,-2.888c11.01,-4.09 23.96,-8.966 38.528,-13.772c29.054,-9.722 64.638,-18.9 99.828,-25.014c35.138,-6.246 69.712,-9.554 95.494,-10.896c15.802,-0.834 28.29,-1.056 35.582,-1.102c-7.368,-1.312 -17.074,-2.87 -28.512,-4.258c-26.77,-3.31 -63.048,-5.292 -100.182,-2.12c-37.11,3.008 -74.982,11.374 -104.362,24.506c-14.688,6.498 -27.246,14.082 -36.686,21.9c-2.33,1.996 -4.568,3.842 -6.51,5.838c-1.936,2.006 -3.696,3.952 -5.27,5.82c-1.248,1.546 -2.354,3.088 -3.31,4.588Z" style="fill:url(#_Linear20);fill-rule:nonzero;"/></g><path d="M500.83,108.346c-21.736,10.082 -51.008,24.172 -80.884,40.396c-29.902,16.176 -60.428,34.54 -84.978,52.076c-6.038,4.46 -11.916,8.694 -17.172,12.922c-5.302,4.194 -10.004,8.41 -14.274,12.282c-3.514,3.204 -6.614,6.31 -9.256,9.274l22.012,0c4.808,-2.388 9.784,-5.154 15.07,-8.048c6.112,-3.41 12.616,-7.012 19.146,-11.026c26.45,-15.736 56.02,-35.036 83.662,-53.394c27.64,-18.4 53.382,-35.956 72.136,-49.04c18.782,-13.046 30.396,-21.816 30.378,-21.844c-0.002,0.03 -14.078,6.348 -35.84,16.402Z" style="fill:url(#_Linear21);fill-rule:nonzero;"/></g><defs><linearGradient id="_Linear1" x1="0" y1="0" x2="1" y2="0" gradientUnits="userSpaceOnUse" gradientTransform="matrix(-212.754,147.485,147.485,212.754,445.492,97.6894)"><stop offset="0" style="stop-color:#00add1;stop-opacity:1"/><stop offset="1" style="stop-color:#00627e;stop-opacity:1"/></linearGradient><linearGradient id="_Linear2" x1="0" y1="0" x2="1" y2="0" gradientUnits="userSpaceOnUse" gradientTransform="matrix(-151.24,197.377,197.377,151.24,229.598,-12.4909)"><stop offset="0" style="stop-color:#00add1;stop-opacity:1"/><stop offset="1" style="stop-color:#00627e;stop-opacity:1"/></linearGradient><linearGradient id="_Linear3" x1="0" y1="0" x2="1" y2="0" gradientUnits="userSpaceOnUse" gradientTransform="matrix(-150.343,196.205,196.205,150.343,231.399,-11.1882)"><stop offset="0" style="stop-color:#fff;stop-opacity:1"/><stop offset="1" style="stop-color:#000;stop-opacity:1"/></linearGradient><linearGradient id="_Linear4" x1="0" y1="0" x2="1" y2="0" gradientUnits="userSpaceOnUse" gradientTransform="matrix(-348.509,193.829,193.829,348.509,749.684,91.5749)"><stop offset="0" style="stop-color:#00add1;stop-opacity:1"/><stop offset="1" style="stop-color:#00627e;stop-opacity:1"/></linearGradient><linearGradient id="_Linear5" x1="0" y1="0" x2="1" y2="0" gradientUnits="userSpaceOnUse" gradientTransform="matrix(2.74639,138.693,138.693,-2.74639,154.173,69.0754)"><stop offset="0" style="stop-color:#00add1;stop-opacity:1"/><stop offset="1" style="stop-color:#00627e;stop-opacity:1"/></linearGradient><linearGradient id="_Linear6" x1="0" y1="0" x2="1" y2="0" gradientUnits="userSpaceOnUse" gradientTransform="matrix(24.6507,25.683,25.683,-24.6507,116.414,111.769)"><stop offset="0" style="stop-color:#fff;stop-opacity:1"/><stop offset="1" style="stop-color:#000;stop-opacity:1"/></linearGradient><linearGradient id="_Linear7" x1="0" y1="0" x2="1" y2="0" gradientUnits="userSpaceOnUse" gradientTransform="matrix(-97.8513,207.164,207.164,97.8513,206.513,47.858)"><stop offset="0" style="stop-color:#00add1;stop-opacity:1"/><stop offset="1" style="stop-color:#00627e;stop-opacity:1"/></linearGradient><linearGradient id="_Linear8" x1="0" y1="0" x2="1" y2="0" gradientUnits="userSpaceOnUse" gradientTransform="matrix(-87.7295,185.735,185.735,87.7295,198.247,63.7703)"><stop offset="0" style="stop-color:#fff;stop-opacity:1"/><stop offset="1" style="stop-color:#000;stop-opacity:1"/></linearGradient><linearGradient id="_Linear9" x1="0" y1="0" x2="1" y2="0" gradientUnits="userSpaceOnUse" gradientTransform="matrix(-114.721,132.382,132.382,114.721,256.846,123.191)"><stop offset="0" style="stop-color:#00add1;stop-opacity:1"/><stop offset="1" style="stop-color:#00627e;stop-opacity:1"/></linearGradient><linearGradient id="_Linear10" x1="0" y1="0" x2="1" y2="0" gradientUnits="userSpaceOnUse" gradientTransform="matrix(-255.955,181.297,181.297,255.955,427.312,66.3558)"><stop offset="0" style="stop-color:#00add1;stop-opacity:1"/><stop offset="1" style="stop-color:#00627e;stop-opacity:1"/></linearGradient><linearGradient id="_Linear11" x1="0" y1="0" x2="1" y2="0" gradientUnits="userSpaceOnUse" gradientTransform="matrix(-152.69,44.8959,44.8959,152.69,395.256,143.294)"><stop offset="0" style="stop-color:#fff;stop-opacity:1"/><stop offset="1" style="stop-color:#000;stop-opacity:1"/></linearGradient><linearGradient id="_Linear12" x1="0" y1="0" x2="1" y2="0" gradientUnits="userSpaceOnUse" gradientTransform="matrix(-241.389,192.705,192.705,241.389,361.249,38.7028)"><stop offset="0" style="stop-color:#00add1;stop-opacity:1"/><stop offset="1" style="stop-color:#00627e;stop-opacity:1"/></linearGradient><linearGradient id="_Linear13" x1="0" y1="0" x2="1" y2="0" gradientUnits="userSpaceOnUse" gradientTransform="matrix(-221.309,176.675,176.675,221.309,344.113,52.6425)"><stop offset="0" style="stop-color:#fff;stop-opacity:1"/><stop offset="1" style="stop-color:#000;stop-opacity:1"/></linearGradient><linearGradient id="_Linear14" x1="0" y1="0" x2="1" y2="0" gradientUnits="userSpaceOnUse" gradientTransform="matrix(-406.811,129.606,129.606,406.811,808.262,159.007)"><stop offset="0" style="stop-color:#00add1;stop-opacity:1"/><stop offset="1" style="stop-color:#00627e;stop-opacity:1"/></linearGradient><linearGradient id="_Linear15" x1="0" y1="0" x2="1" y2="0" gradientUnits="userSpaceOnUse" gradientTransform="matrix(-167.848,156.582,156.582,167.848,458.475,95.0748)"><stop offset="0" style="stop-color:#00add1;stop-opacity:1"/><stop offset="1" style="stop-color:#00627e;stop-opacity:1"/></linearGradient><linearGradient id="_Linear16" x1="0" y1="0" x2="1" y2="0" gradientUnits="userSpaceOnUse" gradientTransform="matrix(-347.565,83.0304,83.0304,347.565,820.684,212.178)"><stop offset="0" style="stop-color:#00add1;stop-opacity:1"/><stop offset="1" style="stop-color:#00627e;stop-opacity:1"/></linearGradient><linearGradient id="_Linear17" x1="0" y1="0" x2="1" y2="0" gradientUnits="userSpaceOnUse" gradientTransform="matrix(-200.475,187.401,187.401,200.475,597.114,64.3675)"><stop offset="0" style="stop-color:#00add1;stop-opacity:1"/><stop offset="1" style="stop-color:#00627e;stop-opacity:1"/></linearGradient><linearGradient id="_Linear18" x1="0" y1="0" x2="1" y2="0" gradientUnits="userSpaceOnUse" gradientTransform="matrix(-185.106,173.035,173.035,185.106,596.29,72.7486)"><stop offset="0" style="stop-color:#fff;stop-opacity:1"/><stop offset="1" style="stop-color:#000;stop-opacity:1"/></linearGradient><linearGradient id="_Linear19" x1="0" y1="0" x2="1" y2="0" gradientUnits="userSpaceOnUse" gradientTransform="matrix(-325.947,163.738,163.738,325.947,817.9,110.473)"><stop offset="0" style="stop-color:#00add1;stop-opacity:1"/><stop offset="1" style="stop-color:#00627e;stop-opacity:1"/></linearGradient><linearGradient id="_Linear20" x1="0" y1="0" x2="1" y2="0" gradientUnits="userSpaceOnUse" gradientTransform="matrix(-305.803,153.618,153.618,305.803,806.996,117.852)"><stop offset="0" style="stop-color:#fff;stop-opacity:1"/><stop offset="1" style="stop-color:#000;stop-opacity:1"/></linearGradient><linearGradient id="_Linear21" x1="0" y1="0" x2="1" y2="0" gradientUnits="userSpaceOnUse" gradientTransform="matrix(-56.7338,177.065,177.065,56.7338,440.769,77.452)"><stop offset="0" style="stop-color:#00add1;stop-opacity:1"/><stop offset="1" style="stop-color:#00627e;stop-opacity:1"/></linearGradient></defs></svg>