<?xml version="1.0" encoding="UTF-8" standalone="no"?>
<!-- Uploaded to: SVG Repo, www.svgrepo.com, Generator: SVG Repo Mixer Tools -->

<svg
   width="800px"
   height="800px"
   viewBox="0 0 24 24"
   fill="none"
   version="1.1"
   id="svg147"
   sodipodi:docname="palm-left.svg"
   inkscape:version="1.4 (86a8ad7, 2024-10-11)"
   xmlns:inkscape="http://www.inkscape.org/namespaces/inkscape"
   xmlns:sodipodi="http://sodipodi.sourceforge.net/DTD/sodipodi-0.dtd"
   xmlns="http://www.w3.org/2000/svg"
   xmlns:svg="http://www.w3.org/2000/svg">
  <sodipodi:namedview
     id="namedview147"
     pagecolor="#ffffff"
     bordercolor="#000000"
     borderopacity="0.25"
     inkscape:showpageshadow="2"
     inkscape:pageopacity="0.0"
     inkscape:pagecheckerboard="0"
     inkscape:deskcolor="#d1d1d1"
     inkscape:zoom="0.96625"
     inkscape:cx="399.48254"
     inkscape:cy="455.88616"
     inkscape:window-width="1920"
     inkscape:window-height="991"
     inkscape:window-x="1911"
     inkscape:window-y="-9"
     inkscape:window-maximized="1"
     inkscape:current-layer="svg147" />
  <g
     id="g147"
     transform="matrix(-1,0,0,1,23.917591,0)">
    <path
       d="m 9.8641,8.93962 c 0.4507,0 0.816,-0.36534 0.816,-0.816 0,-0.45067 -0.3653,-0.816 -0.816,-0.816 -0.45067,0 -0.816,0.36533 -0.816,0.816 0,0.45066 0.36533,0.816 0.816,0.816 z"
       fill="url(#paint0_linear)"
       id="path1"
       style="fill:url(#paint0_linear)" />
    <path
       d="m 11.52,4.43387 c 0.678,-1.86 3.042,-2.694 3.54,-2.628 0,0 -0.192,0.27 -0.516,0.63 -0.498,0.552 -0.33,1.056 -1.308,2.142 -0.582,0.642 -1.716,-0.144 -1.716,-0.144 z"
       fill="url(#paint1_linear)"
       id="path2"
       style="fill:url(#paint1_linear)" />
    <path
       d="m 14.778,1.8238 c -0.354,0.21 -0.606,0.45 -0.708,0.666 0,0 -0.564,0.174 -0.636,0.216 0,0 0.21,-0.018 0.438,-0.036 0.15,-0.012 -0.258,0.54 -0.258,0.54 0,0 -0.576,0.168 -0.81,0.324 0,0 0.366,-0.108 0.51,-0.096 0.144,0.012 -0.24,0.606 -0.618,0.54 -0.336,-0.06 -0.66,-0.192 -0.876,-0.162 -0.06,0.09 -0.114,0.186 -0.162,0.288 0.024,0.12 0.078,0.24 0.078,0.24 l 1.206,0.288 0.336,-0.102 c 0.93,-1.05 0.78,-1.548 1.266,-2.094 0.324,-0.36 0.516,-0.63 0.516,-0.63 -0.066,-0.012 -0.162,-0.006 -0.282,0.018 z"
       fill="url(#paint2_linear)"
       id="path3"
       style="fill:url(#paint2_linear)" />
    <path
       d="m 12.888,4.1278 c -0.312,0.114 -0.564,-0.084 -1.134,-0.204 -0.096,0.162 -0.174,0.33 -0.24,0.51 0,0 1.134,0.786 1.716,0.138 0.978,-1.086 0.816,-1.59 1.308,-2.142 0.324,-0.36 0.516,-0.63 0.516,-0.63 -1.17,0.408 -1.362,2.028 -2.166,2.328 z"
       fill="#407817"
       id="path4" />
    <path
       d="m 11.688,4.21179 c -0.444,-1.218 -2.70599,-2.028 -3.44999,-2.142 -0.234,-0.03 -0.15,0.084 0.156,0.21 0.306,0.126 1.416,0.984 1.47,1.752 0.054,0.768 1.82399,0.18 1.82399,0.18 z"
       fill="url(#paint3_linear)"
       id="path5"
       style="fill:url(#paint3_linear)" />
    <path
       d="m 8.39401,2.27979 c 0.294,0.126 1.362,0.942 1.464,1.698 l 1.20599,0.288 c 0,0 0.42,-0.09 0.54,-0.246 -0.06,-0.108 -0.126,-0.21 -0.21,-0.312 -0.486,-0.246 -1.182,-0.21 -1.254,-0.222 -0.078,-0.012 -0.32999,-0.336 -0.27599,-0.342 0.13799,-0.03 0.51599,0.054 0.51599,0.054 -0.132,-0.096 -0.66599,-0.132 -0.66599,-0.132 -0.192,-0.264 -0.408,-0.42 -0.282,-0.408 0.126,0.024 0.228,-0.018 0.228,-0.018 0,0 -0.378,-0.042 -0.456,-0.078 -0.084,-0.036 -0.51,-0.348 -0.96,-0.492 -0.24,-0.03 -0.156,0.084 0.15,0.21 z"
       fill="url(#paint4_linear)"
       id="path6"
       style="fill:url(#paint4_linear)" />
    <path
       d="m 11.688,4.21159 c -0.036,-0.102 -0.09,-0.204 -0.15,-0.3 -0.798,-0.432 -1.386,-0.204 -1.58999,-0.468 -0.204,-0.264 -0.78,-0.984 -1.656,-1.362 -0.018,-0.006 -0.036,-0.006 -0.048,-0.006 -0.24,-0.036 -0.156,0.078 0.15,0.204 0.306,0.126 1.416,0.984 1.47,1.752 0.06,0.774 1.82399,0.18 1.82399,0.18 z"
       fill="#407817"
       id="path7" />
    <path
       d="m 14.898,6.81588 c 1.278,-0.228 1.824,-0.738 2.628,-1.422 0.804,-0.684 1.872,-0.966 2.49,-0.774 0,0 -0.786,-1.35 -3.888,-1.314 -3.102,0.036 -4.098,2.454 -4.098,2.454 z"
       fill="url(#paint5_linear)"
       id="path8"
       style="fill:url(#paint5_linear)" />
    <path
       d="m 16.1281,3.31168 c -0.444,0.006 -0.846,0.06 -1.206,0.15 -0.768,0.318 -1.386,0.636 -1.788,0.894 -0.21,0.174 -0.384,0.354 -0.528,0.522 0.06,0.078 0.486,0.198 1.056,-0.216 2.238,-1.62 5.808,-0.534 4.44,-1.146 -0.522,-0.132 -1.17,-0.216 -1.974,-0.204 z"
       fill="url(#paint6_linear)"
       id="path9"
       style="fill:url(#paint6_linear)" />
    <path
       d="m 18.372,4.26581 c -0.522,0.066 -1.5,-0.228 -1.92,-0.258 0,0 0.912,0.348 1.008,0.546 0,0 0.072,0.09 -0.162,0.132 -0.234,0.048 -0.654,0.396 -0.654,0.396 0,0 -1.194,-0.372 -1.794,-0.294 0,0 1.158,0.198 1.434,0.498 0.282,0.3 -1.134,0.438 -1.134,0.438 l 0.78,0.78 c 0.618,-0.27 1.044,-0.654 1.59,-1.116 0.804,-0.684 1.872,-0.966 2.49,-0.774 -0.228,-0.282 -1.11,-0.414 -1.638,-0.348 z"
       fill="url(#paint7_linear)"
       id="path10"
       style="fill:url(#paint7_linear)" />
    <path
       d="m 17.0701,5.09981 c -0.666,0.666 -1.41,0.888 -1.41,0.888 -0.99,-0.828 -1.908,-1.44 -2.58,-1.584 -0.168,0 -0.108,0.096 -0.162,0.144 0.78,0.348 1.848,1.056 2.79,2.058 0.744,-0.27 1.206,-0.69 1.818,-1.206 0.804,-0.684 1.872,-0.966 2.49,-0.774 -0.738,-0.402 -2.28,-0.192 -2.946,0.474 z"
       fill="#407817"
       id="path11" />
    <path
       d="m 11.3941,4.4879 0.096,-0.372 c 0,0 -0.39,-0.174 -1.008,-0.312 -0.366,-0.132 -0.85802,-0.24 -1.51802,-0.282 -3.072,-0.21 -4.806,2.61 -4.962,2.83801 -0.156,0.228 -0.084,0.33 -0.084,0.33 l 0.744,-0.37801 c 1.56,-0.57 3.09,0.144 3.09,0.144 l 1.62,-0.57 2.09402,-0.696 c 0,-0.006 0.126,-0.33 -0.072,-0.702 z"
       fill="url(#paint8_linear)"
       id="path12"
       style="fill:url(#paint8_linear)" />
    <path
       d="m 4.66208,6.31212 c 1.56,-0.57 3.09,0.144 3.09,0.144 l 1.62,-0.57 2.09402,-0.696 c 0,0 0.126,-0.33 -0.072,-0.696 l 0.096,-0.372 c 0,0 -0.288,-0.132 -0.762,-0.252 -0.45,0.228 -1.08002,0.384 -1.90802,0.21 -1.134,-0.252 -2.952,0.72 -4.026,1.26 -0.468,0.504 -0.738,0.936 -0.792,1.02 -0.156,0.228 -0.084,0.33 -0.084,0.33 z"
       fill="url(#paint9_linear)"
       id="path13"
       style="fill:url(#paint9_linear)" />
    <path
       d="m 12.0481,4.30179 c 1.17,-0.048 6.54,3.25799 5.652,8.25001 0,0 -0.42,-1.098 -1.806,-1.686 -1.026,-0.438 -2.262,-1.14002 -3.054,-3.17402 -0.894,-2.292 -0.792,-3.38999 -0.792,-3.38999 z"
       fill="url(#paint10_linear)"
       id="path14"
       style="fill:url(#paint10_linear)" />
    <path
       d="m 16.8601,8.67562 c 0.654,1.008 0.558,2.38198 -0.258,1.26 -0.708,-0.966 -2.958,-2.472 -2.436,-4.668 -0.354,-0.246 -0.696,-0.45 -1.002,-0.606 l -1.104,0.042 c 0.042,0.504 0.198,1.494 0.786,2.988 0.792,2.034 2.028,2.73598 3.054,3.17398 1.386,0.588 1.806,1.686 1.806,1.686 0.336,-1.878 -0.216,-3.51598 -1.098,-4.82998 -0.048,0.24 -0.006,0.552 0.252,0.954 z"
       fill="url(#paint11_linear)"
       id="path15"
       style="fill:url(#paint11_linear)" />
    <path
       d="m 17.6999,12.5518 c 0.018,-0.108 0.036,-0.222 0.048,-0.33 -0.084,-1.182 -0.948,-1.194 -1.332,-1.584 -0.384,-0.384 -0.474,-1.578 -0.474,-1.578 -0.174,0.6 0.078,1.38 0.078,1.38 0,0 -0.738,-0.09 -1.014,-0.78 -0.282,-0.69 -0.084,-2.226 -0.084,-2.226 -0.348,0.474 -0.198,2.256 -0.198,2.256 -0.702,-0.804 -0.804,-1.86 -0.666,-2.718 0.102,-0.636 0.186,-1.26 -0.078,-1.836 -0.162,-0.108 -0.318,-0.204 -0.474,-0.294 l -0.294,1.464 -0.084,2.034 c 0.786,1.536 1.854,2.136 2.76,2.52 1.392,0.594 1.812,1.692 1.812,1.692 z"
       fill="url(#paint12_linear)"
       id="path16"
       style="fill:url(#paint12_linear)" />
    <path
       d="m 11.046,21.948 c 1.614,-5.82 1.002,-9.978 0.816,-12.69003 l 1.122,-1.986 c 0,0 2.124,7.22403 0.888,14.62803 0,0 -0.558,0.3 -1.218,0.3 -0.378,0 -0.93,-0.066 -1.608,-0.252 z"
       fill="url(#paint13_linear)"
       id="path17"
       style="fill:url(#paint13_linear)" />
    <path
       d="m 12.468,11.6159 c 0.306,2.034 -0.852,9.486 -0.966,9.93 -0.108,0.444 0.414,0.108 0.846,-0.42 0.432,-0.528 0.054,-1.122 0.24,-2.874 0.186,-1.752 0.504,-6.264 0.216,-6.966 -0.288,-0.696 -0.612,-1.51199 -0.336,0.33 z"
       fill="url(#paint14_linear)"
       id="path18"
       style="fill:url(#paint14_linear)" />
    <path
       d="m 12.9839,7.27197 -1.044,3.00003 c 0.054,0.672 0.114,1.416 0.15,2.232 1.992,-1.734 1.356,-0.456 1.266,2.304 -0.042,1.338 -0.432,6.09 -0.084,7.308 0.312,-0.06 0.594,-0.216 0.6,-0.216 0.006,0 0,0 0,0 1.236,-7.404 -0.888,-14.62803 -0.888,-14.62803 z"
       fill="url(#paint15_linear)"
       id="path19"
       style="fill:url(#paint15_linear)" />
    <path
       d="m 14.13,13.9676 c -0.012,-0.18 -0.03,-0.354 -0.048,-0.534 -0.498,0.606 -1.23,1.224 -1.962,1.23 0,0.078 -0.006,0.162 -0.006,0.24 0.336,0.036 0.99,-0.072 2.016,-0.936 z"
       fill="url(#paint16_linear)"
       id="path20"
       style="fill:url(#paint16_linear)" />
    <path
       d="m 12.108,12.8339 c 0.006,0.084 0.006,0.174 0.006,0.258 0.402,-0.066 1.17,-0.312 1.776,-1.266 -0.024,-0.192 -0.054,-0.384 -0.084,-0.57 -0.198,0.588 -0.978,1.278 -1.698,1.578 z"
       fill="url(#paint17_linear)"
       id="path21"
       style="fill:url(#paint17_linear)" />
    <path
       d="m 14.2261,15.5518 c -0.72,0.594 -1.248,0.816 -2.202,0.996 -0.006,0.066 -0.012,0.132 -0.018,0.198 1.044,-0.024 1.836,-0.45 2.238,-0.72 -0.006,-0.162 -0.006,-0.318 -0.018,-0.474 z"
       fill="url(#paint18_linear)"
       id="path22"
       style="fill:url(#paint18_linear)" />
    <path
       d="m 14.0641,20.5437 c 0.018,-0.168 0.036,-0.342 0.054,-0.51 -0.672,0.408 -1.914,0.744 -2.784,0.804 -0.024,0.096 -0.048,0.192 -0.072,0.294 1.2,0.042 2.394,-0.414 2.802,-0.588 z"
       fill="url(#paint19_linear)"
       id="path23"
       style="fill:url(#paint19_linear)" />
    <path
       d="m 14.238,18.2038 c 0.006,-0.204 0.012,-0.408 0.018,-0.612 0,0.006 -0.006,0.006 -0.006,0.006 -0.42,0.474 -1.32,1.224 -2.496,1.164 -0.012,0.078 -0.024,0.156 -0.042,0.234 1.08,0.216 2.178,-0.528 2.526,-0.792 z"
       fill="url(#paint20_linear)"
       id="path24"
       style="fill:url(#paint20_linear)" />
    <path
       d="m 12.0181,11.2437 c 0.006,0.072 0.012,0.138 0.012,0.21 0.498,-0.144 1.164,-0.486 1.596,-1.29 -0.024,-0.138 -0.048,-0.26998 -0.072,-0.40198 -0.258,0.50998 -0.696,1.10998 -1.536,1.48198 z"
       fill="url(#paint21_linear)"
       id="path25"
       style="fill:url(#paint21_linear)" />
    <path
       d="m 5.83206,14.2796 c 0.726,-1.752 1.938,-2.43 2.712,-3.834 0.624,-1.14004 0.984,-2.56804 1.446,-3.27004 0.46204,-0.702 0.13804,-1.824 0.13804,-1.824 0,0 -4.46404,1.146 -5.11804,4.23 -0.654,3.08404 0.822,4.69804 0.822,4.69804 z"
       fill="#76ab50"
       id="path26" />
    <path
       d="m 5.83206,14.2796 c 0.726,-1.752 1.938,-2.43 2.712,-3.834 0.624,-1.14004 0.984,-2.56804 1.446,-3.27004 0.46204,-0.702 0.13804,-1.824 0.13804,-1.824 0,0 -4.46404,1.146 -5.11804,4.23 -0.654,3.08404 0.822,4.69804 0.822,4.69804 z"
       fill="url(#paint22_linear)"
       id="path27"
       style="fill:url(#paint22_linear)" />
    <path
       d="m 10.1341,5.35791 c 0,0 -0.37803,0.096 -0.93603,0.312 0.048,0.774 -0.486,1.488 -0.696,1.656 -0.234,0.192 -1.764,1.5 -2.226,3.25199 -0.462,1.752 -0.786,2.064 -0.996,0.858 -0.168,-0.966 -0.036,-2.43599 1.386,-4.34399 -0.774,0.63 -1.428,1.452 -1.65,2.49 -0.654,3.08999 0.816,4.69799 0.816,4.69799 0.726,-1.752 1.938,-2.43 2.712,-3.834 0.624,-1.13999 0.984,-2.56799 1.446,-3.26999 0.46203,-0.702 0.14403,-1.818 0.14403,-1.818 z"
       fill="url(#paint23_linear)"
       id="path28"
       style="fill:url(#paint23_linear)" />
    <path
       d="m 6.37206,10.5601 c 0.258,0.102 0.36,0.942 0.54,1.206 0.06,0.09 1.05,-1.206 1.05,-1.206 0,0 -0.282,-1.13403 -0.762,-1.56604 0,0 0.558,0.21001 0.852,0.85201 0.294,0.64203 0.6,-1.01401 0.63,-1.30201 0.03,-0.288 -0.408,-1.062 -0.558,-1.212 0,0 0.57,0.666 0.828,0.504 0.258,-0.162 0.558,-0.504 0.492,-1.014 -0.066,-0.51 0.222,-1.158 0.222,-1.158 l -0.012,0.924 -0.504,2.244 -1.098,2.25604 -2.052,2.496 -0.30001,0.726 c 0,0 -0.03,-1.17 0.93001,-2.04 l 0.084,-0.462 z"
       fill="url(#paint24_linear)"
       id="path29"
       style="fill:url(#paint24_linear)" />
    <path
       d="m 10.2121,6.57556 c 0.096,-0.606 -0.084,-1.224 -0.084,-1.224 0,0 -0.15003,0.036 -0.40203,0.12 -0.072,0.024 -0.21,0.774 -0.144,1.32 0.024,0.198 -0.024,0.39 -0.126,0.558 -0.606,1.044 -0.516,2.28 -1.566,3.57004 -0.978,1.2 -1.818,2.1 -2.19,3.186 0.084,0.114 0.138,0.174 0.138,0.174 0.726,-1.752 1.938,-2.43 2.712,-3.834 0.624,-1.14004 0.984,-2.56804 1.446,-3.27004 0.11403,-0.174 0.18003,-0.372 0.21603,-0.57 0,-0.006 0,-0.006 0,-0.012 0,0 0,-0.006 0,-0.018 0,0.006 0,0.006 0,0 z"
       fill="#407817"
       id="path30" />
    <path
       d="m 17.2981,11.4416 c -0.648,-0.72 -2.244,-0.966 -2.82,-1.75201 -0.576,-0.786 -0.912,-1.158 -0.63,-2.334 0.204,-0.852 0.174,-1.728 -0.036,-2.328 -0.408,-0.384 -0.846,-0.45 -1.05,-0.552 0.396,0.33 1.044,1.086 0.918,1.938 -0.09,0.624 -0.24,1.29 -0.51,2.004 0.78,1.482 1.83,2.06401 2.724,2.44801 1.386,0.588 1.806,1.686 1.806,1.686 0.018,-0.108 0.036,-0.222 0.048,-0.33 -0.054,-0.21 -0.18,-0.48 -0.45,-0.78 z"
       fill="#407817"
       id="path31" />
    <path
       d="M 10.974,12.0597 C 11.7,11.0997 9.828,9.34769 9.828,7.03769 c 0,-2.586 1.17,-3.18 1.656,-2.922 0,0 2.196,-0.048 2.232,2.262 0.03,1.632 -0.762,5.10001 -2.742,5.68201 z"
       fill="url(#paint25_linear)"
       id="path32"
       style="fill:url(#paint25_linear)" />
    <path
       d="m 12.666,4.42188 c 0.384,0.53399 0.696,1.36199 0.654,2.62199 -0.108,3.06603 -1.89,4.01403 -1.488,2.61 0.354,-1.242 -1.494,-3.246 -1.56,-4.836 -0.252,0.468 -0.444,1.182 -0.444,2.214 0,2.316 1.872,4.06803 1.146,5.02203 1.98,-0.582 2.772,-4.05603 2.748,-5.68803 -0.018,-1.092 -0.528,-1.656 -1.056,-1.94399 z"
       fill="url(#paint26_linear)"
       id="path33"
       style="fill:url(#paint26_linear)" />
    <path
       d="m 6.94202,5.94614 c 0.582,-0.93 1.218,-1.38 1.506,-1.452 0,0 -1.074,0.762 -1.11,1.38"
       fill="url(#paint27_linear)"
       id="path34"
       style="fill:url(#paint27_linear)" />
    <path
       d="m 8.91602,2.50809 c 0.354,-0.012 0.702,0.12 0.744,0.132 0.042,0.012 0.042,0.05401 -0.144,0 -0.186,-0.054 -0.45,-0.03 -0.45,-0.03"
       fill="#407817"
       id="path35" />
    <path
       d="m 9.52808,3.02979 c 0.77402,0.03 0.96602,0.228 0.78002,0.156 -0.18,-0.066 -0.51002,-0.114 -0.66002,-0.03 -0.15,0.084 -0.12,-0.126 -0.12,-0.126 z"
       fill="#407817"
       id="path36" />
    <path
       d="m 14.346,2.38818 c -0.444,0.048 -0.852,0.27 -0.9,0.294 -0.048,0.024 -0.042,0.072 0.18,-0.024 0.222,-0.096 0.558,-0.114 0.558,-0.114"
       fill="#407817"
       id="path37" />
    <path
       d="m 13.812,3.12598 c -0.948,0.228 -1.134,0.516 -0.93,0.384 0.204,-0.126 0.6,-0.27 0.81,-0.198 0.21,0.072 0.12,-0.186 0.12,-0.186 z"
       fill="#407817"
       id="path38" />
    <path
       d="m 18.288,4.51752 c -1.578,-0.696 -2.136,-0.492 -1.71,-0.45 0.42,0.042 1.134,0.27 1.35,0.588 0.216,0.324 0.36,-0.138 0.36,-0.138 z"
       fill="#407817"
       id="path39" />
    <path
       d="m 17.214,5.18978 c -2.028,-0.72 -2.73,-0.372 -2.19,-0.378 0.534,0 1.446,0.21 1.734,0.612 0.294,0.408 0.456,-0.234 0.456,-0.234 z"
       fill="#407817"
       id="path40" />
    <path
       d="m 8.13607,10.9315 c -0.126,-1.566 -1.278,-2.31 -0.894,-1.854 0.348,0.408 0.612,1.218 0.684,2.274 0.072,-0.096 0.15,-0.186 0.222,-0.288 0,-0.042 -0.006,-0.084 -0.012,-0.132 z"
       fill="url(#paint28_linear)"
       id="path41"
       style="fill:url(#paint28_linear)" />
    <path
       d="m 9.09002,9.26389 c -0.144,-0.45 -0.402,-1.182 -0.714,-1.626 -0.378,-0.528 -0.384,-0.408 -0.024,0.234 0.3,0.528 0.444,1.254 0.528,1.896 0.072,-0.168 0.144,-0.336 0.21,-0.504 z"
       fill="url(#paint29_linear)"
       id="path42"
       style="fill:url(#paint29_linear)" />
    <path
       d="m 6.78007,12.7081 c -0.012,-0.936 -0.246,-2.238 -0.408,-2.148 0,0.108 0.018,0.222 0.048,0.324 0.24,0.786 0.132,1.386 0.156,2.094 0.066,-0.096 0.132,-0.186 0.204,-0.27 z"
       fill="url(#paint30_linear)"
       id="path43"
       style="fill:url(#paint30_linear)" />
    <path
       d="m 15.0601,10.188 c -0.432,-0.48596 -0.402,-1.88996 -0.174,-2.53796 0.216,-0.624 -0.462,0.006 -0.408,2.38796 0.204,0.168 0.414,0.306 0.624,0.426 0.084,-0.03 0.102,-0.114 -0.042,-0.276 z"
       fill="#407817"
       id="path44" />
    <path
       d="m 16.344,10.7938 c -0.378,-0.288 -0.468,-1.13998 -0.396,-1.63798 0.072,-0.474 -0.33,0.066 0.024,1.74598 0.132,0.06 0.258,0.126 0.378,0.198 0.114,-0.072 0.174,-0.168 -0.006,-0.306 z"
       fill="#407817"
       id="path45" />
    <path
       d="m 8.08203,6.17383 c -0.144,0.072 -0.288,0.156 -0.432,0.24 -3.59999,3.366 -1.92,8.04597 -1.92,8.04597 l 0.108,-0.174 c -1.14599,-3.546 0.708,-6.70797 2.244,-8.11197 z"
       fill="url(#paint31_linear)"
       id="path46"
       style="fill:url(#paint31_linear)" />
    <path
       d="m 11.94,4.51769 c -0.108,-0.156 -0.204,-0.288 -0.288,-0.396 -0.102,-0.006 -0.162,-0.006 -0.162,-0.006 -0.024,-0.012 -0.048,-0.018 -0.072,-0.03 -0.096,-0.03 -0.21,-0.018 -0.336,0.03 0.858,0.606 1.44,2.544 1.236,4.284 -0.006,0.006 0.69,-2.304 -0.378,-3.882 z"
       fill="url(#paint32_linear)"
       id="path47"
       style="fill:url(#paint32_linear)" />
    <path
       d="m 11.724,4.10387 c -0.138,-0.006 -0.222,-0.006 -0.222,-0.006 -0.054,-0.018 -0.114,-0.024 -0.18,-0.03 0.852,0.474 1.302,2.37 1.056,3.966 -0.006,0.024 -0.06,0.372 -0.06,0.372 0.048,0.006 0.204,-0.282 0.222,-0.408 0.222,-1.794 -0.27,-3.198 -0.816,-3.894 z"
       fill="url(#paint33_linear)"
       id="path48"
       style="fill:url(#paint33_linear)" />
    <path
       d="m 6.78005,4.55371 c 0,0 -0.906,0.642 -1.032,1.206 0.456,-0.078 0.9,-0.09 1.338,-0.054 l 0.024,-0.012 c 0,0 -0.672,0.006 -1.026,-0.132 -0.198,-0.084 0.696,-1.008 0.696,-1.008 z"
       fill="url(#paint34_linear)"
       id="path49"
       style="fill:url(#paint34_linear)" />
    <path
       d="m 8.44806,4.48769 c 0,0 -0.918,0.654 -1.086,1.236 0.558,0.054 1.116,-0.078 1.572,-0.396 0.438,-0.306 1.09804,-0.762 2.02804,-1.398 -0.876,0.252 -2.09404,1.158 -2.47804,1.452 -0.384,0.294 -0.816,0.264 -0.792,0.042 0.036,-0.282 0.756,-0.936 0.756,-0.936 z"
       fill="url(#paint35_linear)"
       id="path50"
       style="fill:url(#paint35_linear)" />
    <path
       d="m 6.00008,4.31982 c -1.218,0.792 -1.902,1.902 -1.998,2.04 -0.156,0.228 -0.084,0.33 -0.084,0.33 l 0.744,-0.378 c 0.318,-0.114 0.63,-0.18 0.936,-0.204 0.138,-0.312 0.246,-0.63 0.15,-0.642 -0.186,-0.024 -1.326,0.762 -1.128,0.384 0.144,-0.264 0.726,-1.002 1.38,-1.53 z"
       fill="url(#paint36_linear)"
       id="path51"
       style="fill:url(#paint36_linear)" />
    <path
       d="m 7.65009,6.41355 c 1.056,-0.624 2.022,-0.714 2.328,-0.798 0.34201,-1.116 1.06801,-1.656 1.44601,-1.524 -0.084,-0.036 -0.24,-0.096 -0.456,-0.156 -0.93,0.636 -1.59001,1.092 -2.02801,1.398 -0.468,0.324 -1.032,0.456 -1.596,0.396 -0.828,-0.09 -1.638,-0.048 -2.556,0.294 -0.852,0.312 -0.87,0.666 -0.87,0.666 l 0.54,-0.276 c 0.174,-0.09 0.36,-0.162 0.552,-0.21 1.2,-0.3 2.31,0.078 2.64,0.21 z"
       fill="#407817"
       id="path52" />
    <path
       d="m 5.36401,5.92171 c 0.546,-0.876 1.14,-1.296 1.41,-1.368 0,0 -1.008,0.72 -1.044,1.296"
       fill="url(#paint37_linear)"
       id="path53"
       style="fill:url(#paint37_linear)" />
    <path
       d="m 10.8001,9.43167 c -0.396,-0.396 -0.606,-1.374 -0.606,-1.374 l 0.18,-0.426 c 0,0 -0.252,0.108 -0.336,-0.294 -0.40799,-1.95001 0.618,-2.58001 1.218,-3.20401 l -0.036,-0.078 c -0.552,0.03 -1.38599,0.792 -1.38599,2.97601 0,2.316 1.87199,4.06803 1.14599,5.02203 0.768,-0.576 0.216,-2.22603 -0.18,-2.62203 z"
       fill="url(#paint38_linear)"
       id="path54"
       style="fill:url(#paint38_linear)" />
    <path
       d="m 10.992,6.354 c -0.084,0.36 -0.342,1.056 -0.954,2.076 0.024,0.084 0.048,0.168 0.078,0.246 0,0 0.228,-0.27 0.36,-0.6 0.198,-0.492 0.444,-1.26 0.516,-1.722 z"
       fill="url(#paint39_linear)"
       id="path55"
       style="fill:url(#paint39_linear)" />
    <path
       d="M 10.038,8.43 C 10.02,8.37 10.008,8.31 9.98999,8.25 10.008,8.31 10.02,8.37 10.038,8.43 Z"
       fill="#4b8c1c"
       id="path56" />
    <path
       d="m 9.92407,7.95009 c 0.03,0.162 0.072,0.324 0.11403,0.48 1.194,-1.974 1.032,-2.742 0.9,-2.184 -0.132,0.552 -0.558,1.446 -1.01403,1.704 z"
       fill="url(#paint40_linear)"
       id="path57"
       style="fill:url(#paint40_linear)" />
    <path
       d="m 10.8361,9.53988 -0.282,0.252 c 0.054,0.12 0.108,0.23402 0.156,0.34802 0.642,-0.72002 0.78,-1.99802 0.834,-2.36402 l -0.192,0.726 z"
       fill="url(#paint41_linear)"
       id="path58"
       style="fill:url(#paint41_linear)" />
    <path
       d="m 11.448,7.86578 c -0.132,0.54 -0.546,1.422 -0.996,1.692 0.054,0.132 0.114,0.252 0.168,0.378 1.122,-1.89 0.96,-2.622 0.828,-2.07 z"
       fill="url(#paint42_linear)"
       id="path59"
       style="fill:url(#paint42_linear)" />
    <path
       d="m 12.0659,3.47977 c 0.738,0.024 1.2,-0.732 1.896,-1.23 0.132,-0.09 0.234,-0.186 0.318,-0.282 -0.666,0.234 -1.578,0.732 -2.214,1.512 z"
       fill="url(#paint43_linear)"
       id="path60"
       style="fill:url(#paint43_linear)" />
  </g>
  <defs
     id="defs147">
    <linearGradient
       id="paint0_linear"
       x1="10.3125"
       y1="7.13118"
       x2="8.98047"
       y2="10.099"
       gradientUnits="userSpaceOnUse">
      <stop
         stop-color="#3C2200"
         id="stop60" />
      <stop
         offset="1"
         stop-color="#643800"
         id="stop61" />
    </linearGradient>
    <linearGradient
       id="paint1_linear"
       x1="13.5177"
       y1="4.36539"
       x2="13.1205"
       y2="2.21534"
       gradientUnits="userSpaceOnUse">
      <stop
         stop-color="#4B8C1C"
         id="stop62" />
      <stop
         offset="1"
         stop-color="#76AB50"
         id="stop63" />
    </linearGradient>
    <linearGradient
       id="paint2_linear"
       x1="14.4634"
       y1="4.41144"
       x2="12.3604"
       y2="1.76524"
       gradientUnits="userSpaceOnUse">
      <stop
         stop-color="#4B8C1C"
         id="stop64" />
      <stop
         offset="1"
         stop-color="#4B8C1C"
         stop-opacity="0"
         id="stop65" />
    </linearGradient>
    <linearGradient
       id="paint3_linear"
       x1="10.2706"
       y1="4.06789"
       x2="9.63971"
       y2="2.52565"
       gradientUnits="userSpaceOnUse">
      <stop
         stop-color="#4B8C1C"
         id="stop66" />
      <stop
         offset="1"
         stop-color="#76AB50"
         id="stop67" />
    </linearGradient>
    <linearGradient
       id="paint4_linear"
       x1="9.75603"
       y1="3.60805"
       x2="9.97514"
       y2="2.36354"
       gradientUnits="userSpaceOnUse">
      <stop
         stop-color="#4B8C1C"
         id="stop68" />
      <stop
         offset="1"
         stop-color="#4B8C1C"
         stop-opacity="0"
         id="stop69" />
    </linearGradient>
    <linearGradient
       id="paint5_linear"
       x1="13.8746"
       y1="5.24853"
       x2="17.2624"
       y2="4.82798"
       gradientUnits="userSpaceOnUse">
      <stop
         stop-color="#4B8C1C"
         id="stop70" />
      <stop
         offset="1"
         stop-color="#76AB50"
         id="stop71" />
    </linearGradient>
    <linearGradient
       id="paint6_linear"
       x1="15.0345"
       y1="4.59873"
       x2="16.7426"
       y2="3.26826"
       gradientUnits="userSpaceOnUse">
      <stop
         stop-color="#76AB50"
         stop-opacity="0"
         id="stop72" />
      <stop
         offset="1"
         stop-color="#76AB50"
         id="stop73" />
    </linearGradient>
    <linearGradient
       id="paint7_linear"
       x1="17.4971"
       y1="6.51058"
       x2="17.3802"
       y2="3.15707"
       gradientUnits="userSpaceOnUse">
      <stop
         stop-color="#4B8C1C"
         id="stop74" />
      <stop
         offset="1"
         stop-color="#4B8C1C"
         stop-opacity="0"
         id="stop75" />
    </linearGradient>
    <linearGradient
       id="paint8_linear"
       x1="8.25583"
       y1="8.47386"
       x2="7.37948"
       y2="3.63638"
       gradientUnits="userSpaceOnUse">
      <stop
         stop-color="#4B8C1C"
         id="stop76" />
      <stop
         offset="1"
         stop-color="#76AB50"
         id="stop77" />
    </linearGradient>
    <linearGradient
       id="paint9_linear"
       x1="11.2532"
       y1="16.6593"
       x2="6.44839"
       y2="1.43055"
       gradientUnits="userSpaceOnUse">
      <stop
         stop-color="#4B8C1C"
         id="stop78" />
      <stop
         offset="1"
         stop-color="#4B8C1C"
         stop-opacity="0"
         id="stop79" />
    </linearGradient>
    <linearGradient
       id="paint10_linear"
       x1="11.4715"
       y1="7.6415"
       x2="17.2427"
       y2="8.94996"
       gradientUnits="userSpaceOnUse">
      <stop
         stop-color="#4B8C1C"
         id="stop80" />
      <stop
         offset="1"
         stop-color="#76AB50"
         id="stop81" />
    </linearGradient>
    <linearGradient
       id="paint11_linear"
       x1="13.0197"
       y1="12.1496"
       x2="17.3669"
       y2="3.92276"
       gradientUnits="userSpaceOnUse">
      <stop
         stop-color="#4B8C1C"
         id="stop82" />
      <stop
         offset="1"
         stop-color="#4B8C1C"
         stop-opacity="0"
         id="stop83" />
    </linearGradient>
    <linearGradient
       id="paint12_linear"
       x1="14.9399"
       y1="9.97113"
       x2="15.8864"
       y2="8.16567"
       gradientUnits="userSpaceOnUse">
      <stop
         stop-color="#4B8C1C"
         id="stop84" />
      <stop
         offset="1"
         stop-color="#4B8C1C"
         stop-opacity="0"
         id="stop85" />
    </linearGradient>
    <linearGradient
       id="paint13_linear"
       x1="12.1579"
       y1="14.7552"
       x2="15.4288"
       y2="14.6618"
       gradientUnits="userSpaceOnUse">
      <stop
         stop-color="#A3541E"
         id="stop86" />
      <stop
         offset="1"
         stop-color="#512D00"
         id="stop87" />
    </linearGradient>
    <linearGradient
       id="paint14_linear"
       x1="9.80768"
       y1="16.1421"
       x2="13.9782"
       y2="16.1071"
       gradientUnits="userSpaceOnUse">
      <stop
         stop-color="#C86F34"
         id="stop88" />
      <stop
         offset="1"
         stop-color="#A3541E"
         id="stop89" />
    </linearGradient>
    <linearGradient
       id="paint15_linear"
       x1="7.17232"
       y1="16.6563"
       x2="16.3013"
       y2="13.6614"
       gradientUnits="userSpaceOnUse">
      <stop
         stop-color="#A3541E"
         id="stop90" />
      <stop
         offset="1"
         stop-color="#512D00"
         id="stop91" />
    </linearGradient>
    <linearGradient
       id="paint16_linear"
       x1="14.2746"
       y1="13.6497"
       x2="12.8726"
       y2="14.4909"
       gradientUnits="userSpaceOnUse">
      <stop
         stop-color="#3C2200"
         id="stop92" />
      <stop
         offset="1"
         stop-color="#643800"
         id="stop93" />
    </linearGradient>
    <linearGradient
       id="paint17_linear"
       x1="13.9474"
       y1="11.5831"
       x2="12.6155"
       y2="12.6346"
       gradientUnits="userSpaceOnUse">
      <stop
         stop-color="#3C2200"
         id="stop94" />
      <stop
         offset="1"
         stop-color="#643800"
         id="stop95" />
    </linearGradient>
    <linearGradient
       id="paint18_linear"
       x1="14.2355"
       y1="15.8996"
       x2="12.2378"
       y2="16.4603"
       gradientUnits="userSpaceOnUse">
      <stop
         stop-color="#3C2200"
         id="stop96" />
      <stop
         offset="1"
         stop-color="#643800"
         id="stop97" />
    </linearGradient>
    <linearGradient
       id="paint19_linear"
       x1="14.2015"
       y1="20.4455"
       x2="12.5193"
       y2="20.6208"
       gradientUnits="userSpaceOnUse">
      <stop
         stop-color="#3C2200"
         id="stop98" />
      <stop
         offset="1"
         stop-color="#643800"
         id="stop99" />
    </linearGradient>
    <linearGradient
       id="paint20_linear"
       x1="14.0409"
       y1="18.1444"
       x2="12.3594"
       y2="18.5419"
       gradientUnits="userSpaceOnUse">
      <stop
         stop-color="#3C2200"
         id="stop100" />
      <stop
         offset="1"
         stop-color="#643800"
         id="stop101" />
    </linearGradient>
    <linearGradient
       id="paint21_linear"
       x1="13.1214"
       y1="10.4651"
       x2="11.8947"
       y2="11.2712"
       gradientUnits="userSpaceOnUse">
      <stop
         stop-color="#3C2200"
         id="stop102" />
      <stop
         offset="1"
         stop-color="#643800"
         id="stop103" />
    </linearGradient>
    <linearGradient
       id="paint22_linear"
       x1="10.0564"
       y1="5.73873"
       x2="6.93682"
       y2="9.69959"
       gradientUnits="userSpaceOnUse">
      <stop
         stop-color="#4B8C1C"
         id="stop104" />
      <stop
         offset="1"
         stop-color="#76AB50"
         id="stop105" />
    </linearGradient>
    <linearGradient
       id="paint23_linear"
       x1="10.8527"
       y1="17.1065"
       x2="6.33049"
       y2="5.95884"
       gradientUnits="userSpaceOnUse">
      <stop
         stop-color="#4B8C1C"
         id="stop106" />
      <stop
         offset="1"
         stop-color="#4B8C1C"
         stop-opacity="0"
         id="stop107" />
    </linearGradient>
    <linearGradient
       id="paint24_linear"
       x1="8.46891"
       y1="10.5731"
       x2="6.64832"
       y2="9.20769"
       gradientUnits="userSpaceOnUse">
      <stop
         stop-color="#4B8C1C"
         id="stop108" />
      <stop
         offset="1"
         stop-color="#4B8C1C"
         stop-opacity="0"
         id="stop109" />
    </linearGradient>
    <linearGradient
       id="paint25_linear"
       x1="9.5373"
       y1="12.5216"
       x2="11.8622"
       y2="6.75596"
       gradientUnits="userSpaceOnUse">
      <stop
         stop-color="#4B8C1C"
         id="stop110" />
      <stop
         offset="1"
         stop-color="#76AB50"
         id="stop111" />
    </linearGradient>
    <linearGradient
       id="paint26_linear"
       x1="11.776"
       y1="23.642"
       x2="11.776"
       y2="1.94353"
       gradientUnits="userSpaceOnUse">
      <stop
         stop-color="#4B8C1C"
         id="stop112" />
      <stop
         offset="1"
         stop-color="#4B8C1C"
         stop-opacity="0"
         id="stop113" />
    </linearGradient>
    <linearGradient
       id="paint27_linear"
       x1="7.88802"
       y1="4.15704"
       x2="7.58423"
       y2="5.83958"
       gradientUnits="userSpaceOnUse">
      <stop
         stop-color="#4B8C1C"
         id="stop114" />
      <stop
         offset="0.9987"
         stop-color="#407817"
         id="stop115" />
    </linearGradient>
    <linearGradient
       id="paint28_linear"
       x1="6.76045"
       y1="8.88587"
       x2="7.69519"
       y2="10.2646"
       gradientUnits="userSpaceOnUse">
      <stop
         stop-color="#4B8C1C"
         id="stop116" />
      <stop
         offset="0.9987"
         stop-color="#407817"
         id="stop117" />
    </linearGradient>
    <linearGradient
       id="paint29_linear"
       x1="7.59766"
       y1="7.59752"
       x2="8.48565"
       y2="8.53224"
       gradientUnits="userSpaceOnUse">
      <stop
         stop-color="#4B8C1C"
         id="stop118" />
      <stop
         offset="0.9987"
         stop-color="#407817"
         id="stop119" />
    </linearGradient>
    <linearGradient
       id="paint30_linear"
       x1="6.27304"
       y1="10.6927"
       x2="6.62358"
       y2="12.1884"
       gradientUnits="userSpaceOnUse">
      <stop
         stop-color="#4B8C1C"
         id="stop120" />
      <stop
         offset="0.9987"
         stop-color="#407817"
         id="stop121" />
    </linearGradient>
    <linearGradient
       id="paint31_linear"
       x1="6.68264"
       y1="7.90367"
       x2="6.79949"
       y2="12.6594"
       gradientUnits="userSpaceOnUse">
      <stop
         stop-color="#4B8C1C"
         id="stop122" />
      <stop
         offset="0.9987"
         stop-color="#407817"
         id="stop123" />
    </linearGradient>
    <linearGradient
       id="paint32_linear"
       x1="9.93484"
       y1="3.7653"
       x2="12.4157"
       y2="6.7926"
       gradientUnits="userSpaceOnUse">
      <stop
         stop-color="#4B8C1C"
         id="stop124" />
      <stop
         offset="1"
         stop-color="#76AB50"
         id="stop125" />
    </linearGradient>
    <linearGradient
       id="paint33_linear"
       x1="12.2071"
       y1="6.54975"
       x2="10.0689"
       y2="2.9568"
       gradientUnits="userSpaceOnUse">
      <stop
         stop-color="#4B8C1C"
         id="stop126" />
      <stop
         offset="0.9987"
         stop-color="#407817"
         id="stop127" />
    </linearGradient>
    <linearGradient
       id="paint34_linear"
       x1="6.41291"
       y1="6.06603"
       x2="6.48301"
       y2="4.71646"
       gradientUnits="userSpaceOnUse">
      <stop
         stop-color="#4B8C1C"
         id="stop128" />
      <stop
         offset="1"
         stop-color="#4B8C1C"
         stop-opacity="0"
         id="stop129" />
    </linearGradient>
    <linearGradient
       id="paint35_linear"
       x1="9.09094"
       y1="6.25267"
       x2="9.20179"
       y2="4.11877"
       gradientUnits="userSpaceOnUse">
      <stop
         stop-color="#4B8C1C"
         id="stop130" />
      <stop
         offset="1"
         stop-color="#4B8C1C"
         stop-opacity="0"
         id="stop131" />
    </linearGradient>
    <linearGradient
       id="paint36_linear"
       x1="5.00988"
       y1="6.44031"
       x2="4.92224"
       y2="5.0206"
       gradientUnits="userSpaceOnUse">
      <stop
         stop-color="#4B8C1C"
         id="stop132" />
      <stop
         offset="1"
         stop-color="#4B8C1C"
         stop-opacity="0"
         id="stop133" />
    </linearGradient>
    <linearGradient
       id="paint37_linear"
       x1="6.31907"
       y1="3.87327"
       x2="6.01528"
       y2="5.55581"
       gradientUnits="userSpaceOnUse">
      <stop
         stop-color="#4B8C1C"
         id="stop134" />
      <stop
         offset="0.9987"
         stop-color="#407817"
         id="stop135" />
    </linearGradient>
    <linearGradient
       id="paint38_linear"
       x1="9.91692"
       y1="4.63031"
       x2="12.1304"
       y2="11.0456"
       gradientUnits="userSpaceOnUse">
      <stop
         stop-color="#4B8C1C"
         id="stop136" />
      <stop
         offset="1"
         stop-color="#4B8C1C"
         stop-opacity="0"
         id="stop137" />
    </linearGradient>
    <linearGradient
       id="paint39_linear"
       x1="10.0907"
       y1="8.66743"
       x2="11.0194"
       y2="6.36419"
       gradientUnits="userSpaceOnUse">
      <stop
         stop-color="#4B8C1C"
         id="stop138" />
      <stop
         offset="1"
         stop-color="#4B8C1C"
         stop-opacity="0"
         id="stop139" />
    </linearGradient>
    <linearGradient
       id="paint40_linear"
       x1="11.0102"
       y1="6.94796"
       x2="9.85348"
       y2="7.6665"
       gradientUnits="userSpaceOnUse">
      <stop
         stop-color="#4B8C1C"
         id="stop140" />
      <stop
         offset="0.9987"
         stop-color="#407817"
         id="stop141" />
    </linearGradient>
    <linearGradient
       id="paint41_linear"
       x1="10.7202"
       y1="10.069"
       x2="11.3161"
       y2="8.10607"
       gradientUnits="userSpaceOnUse">
      <stop
         stop-color="#4B8C1C"
         id="stop142" />
      <stop
         offset="1"
         stop-color="#4B8C1C"
         stop-opacity="0"
         id="stop143" />
    </linearGradient>
    <linearGradient
       id="paint42_linear"
       x1="11.8629"
       y1="8.32072"
       x2="10.7062"
       y2="9.03926"
       gradientUnits="userSpaceOnUse">
      <stop
         stop-color="#4B8C1C"
         id="stop144" />
      <stop
         offset="0.9987"
         stop-color="#407817"
         id="stop145" />
    </linearGradient>
    <linearGradient
       id="paint43_linear"
       x1="16.2063"
       y1="5.96717"
       x2="13.2401"
       y2="2.79086"
       gradientUnits="userSpaceOnUse">
      <stop
         stop-color="#4B8C1C"
         id="stop146" />
      <stop
         offset="1"
         stop-color="#76AB50"
         id="stop147" />
    </linearGradient>
  </defs>
</svg>
